<?xml version="1.0" encoding="utf-8"?>
<!-- Generator: Adobe Illustrator 24.0.1, SVG Export Plug-In . SVG Version: 6.00 Build 0)  -->
<svg version="1.1" xmlns="http://www.w3.org/2000/svg" xmlns:xlink="http://www.w3.org/1999/xlink" x="0px" y="0px"
	 viewBox="0 0 39.09 23.85" style="enable-background:new 0 0 39.09 23.85;" xml:space="preserve">
<style type="text/css">
	.st0{fill:#FFFFFF;}
</style>
<g id="BG">
</g>
<g id="Object">
	<path class="st0" d="M37.83,15.8c0.77-0.63,1.26-1.59,1.26-2.66c0-1.89-1.54-3.43-3.43-3.43c-0.15,0-0.29,0.01-0.43,0.03
		c0.08-0.34,0.13-0.7,0.13-1.07c0-2.47-2-4.47-4.47-4.47c-0.74,0-1.43,0.18-2.05,0.5C27.4,1.91,24.49,0,21.14,0
		c-3.76,0-6.96,2.4-8.16,5.75c-0.96-0.82-2.21-1.32-3.57-1.32C6.36,4.43,3.9,6.9,3.9,9.94c0,0.24,0.02,0.47,0.05,0.7
		c-0.19-0.03-0.38-0.05-0.57-0.05C1.51,10.59,0,12.1,0,13.96c0,1.86,1.51,3.37,3.37,3.37c0.39,0,0.77-0.07,1.13-0.19
		c0.27,1.63,1.69,2.88,3.4,2.88c0.9,0,1.71-0.34,2.33-0.9c0.75,2.36,2.97,4.08,5.58,4.08c1.63,0,3.1-0.67,4.16-1.74
		c0.59,1.04,1.71,1.74,3,1.74c1.03,0,1.96-0.45,2.59-1.17c1.07,1.12,2.57,1.83,4.25,1.83c3.13,0,5.69-2.46,5.85-5.55
		c0.31,0.45,0.83,0.75,1.42,0.75c0.95,0,1.71-0.77,1.71-1.72C38.79,16.66,38.39,16.08,37.83,15.8z"/>
</g>
</svg>
