<?xml version="1.0" encoding="utf-8"?>
<!-- Generator: Adobe Illustrator 24.0.1, SVG Export Plug-In . SVG Version: 6.00 Build 0)  -->
<svg version="1.1" xmlns="http://www.w3.org/2000/svg" xmlns:xlink="http://www.w3.org/1999/xlink" x="0px" y="0px"
	 viewBox="0 0 41.79 22.61" style="enable-background:new 0 0 41.79 22.61;" xml:space="preserve">
<style type="text/css">
	.st0{fill:#FFFFFF;}
</style>
<g id="BG">
</g>
<g id="Object">
	<path class="st0" d="M39.58,6.4c-0.43,0-0.84,0.12-1.18,0.34c-0.22-0.99-1.1-1.73-2.16-1.73c-0.9,0-1.67,0.53-2.02,1.3
		c-0.9-2.19-3.06-3.74-5.58-3.74c-0.96,0-1.86,0.22-2.67,0.62C24.61,1.26,22.37,0,19.82,0c-1.52,0-2.93,0.45-4.11,1.22
		C14.78,0.46,13.58,0,12.28,0c-2.98,0-5.4,2.42-5.4,5.4c0,0.3,0.03,0.6,0.07,0.89c-0.77,0.09-1.46,0.42-2.01,0.9
		c-0.52-0.57-1.27-0.93-2.1-0.93C1.27,6.26,0,7.54,0,9.11c0,1.57,1.27,2.84,2.84,2.84c0.03,0,0.07,0,0.1,0
		c-0.06,0.23-0.1,0.48-0.1,0.73c0,1.51,1.23,2.74,2.74,2.74c0.51,0,0.99-0.14,1.4-0.38c0,0.01,0,0.03,0,0.04
		c0,2.93,2.37,5.3,5.3,5.3c1.87,0,3.5-0.96,4.45-2.42c0.63,2.67,3.02,4.65,5.88,4.65c2.59,0,4.8-1.63,5.65-3.92
		c0.76,0.58,1.71,0.92,2.73,0.92c2.43,0,4.41-1.91,4.53-4.3c0.07,0,0.14,0.01,0.21,0.01c2.12,0,3.85-1.72,3.85-3.85
		c0-0.22-0.02-0.43-0.05-0.64c0.02,0,0.04,0,0.05,0c1.22,0,2.21-0.99,2.21-2.21C41.79,7.39,40.8,6.4,39.58,6.4z"/>
</g>
</svg>
