<?xml version="1.0" encoding="utf-8"?>
<!-- Generator: Adobe Illustrator 24.0.1, SVG Export Plug-In . SVG Version: 6.00 Build 0)  -->
<svg version="1.1" xmlns="http://www.w3.org/2000/svg" xmlns:xlink="http://www.w3.org/1999/xlink" x="0px" y="0px"
	 viewBox="0 0 35.09 20.2" style="enable-background:new 0 0 35.09 20.2;" xml:space="preserve">
<style type="text/css">
	.st0{fill:#FFFFFF;}
</style>
<g id="BG">
</g>
<g id="Object">
	<path class="st0" d="M34.5,17.1c0.25-0.44,0.4-0.96,0.4-1.5c0-1.67-1.35-3.02-3.02-3.02c-0.3,0-0.59,0.04-0.86,0.13
		c0.04-0.27,0.06-0.54,0.06-0.82c0-2.35-1.35-4.39-3.31-5.38c0.27-0.58,0.42-1.24,0.42-1.92c0-2.53-2.05-4.59-4.59-4.59
		c-1.85,0-3.44,1.09-4.17,2.67c-0.63-0.63-1.51-1.03-2.48-1.03c-1.6,0-2.95,1.08-3.37,2.55c-0.43-0.08-0.88-0.13-1.34-0.13
		c-3.85,0-6.97,3.12-6.97,6.97c0,0.51,0.06,1.01,0.16,1.49c-0.19-0.04-0.39-0.06-0.59-0.06c-1.7,0-3.08,1.38-3.08,3.08
		c0,0.4,0.08,0.78,0.21,1.13c-0.07-0.01-0.14-0.01-0.21-0.01C0.79,16.65,0,17.44,0,18.42c0,0.98,0.79,1.78,1.77,1.78
		c0.98,0,30.62,0,31.54,0c0.98,0,1.78-0.79,1.78-1.78C35.09,17.9,34.86,17.43,34.5,17.1z"/>
</g>
</svg>
