<?xml version="1.0" encoding="utf-8"?>
<!-- Generator: Adobe Illustrator 24.0.1, SVG Export Plug-In . SVG Version: 6.00 Build 0)  -->
<svg version="1.1" id="Layer_1" xmlns="http://www.w3.org/2000/svg" xmlns:xlink="http://www.w3.org/1999/xlink" x="0px" y="0px"
	 viewBox="0 0 60 100" style="enable-background:new 0 0 60 100;" xml:space="preserve">
<style type="text/css">
	.st0{fill:#30323D;}
</style>
<path class="st0" d="M4.71,31.38c0.06-0.56,0.37-1.11,0.7-1.63c-0.05,0.1-0.09,0.2-0.14,0.3c-0.33,0.72-0.86,1.77-0.65,2.57
	c0.02,0.06,0.14,0.04,0.15-0.02c0-0.03,0.01-0.05,0.01-0.06c0.01-0.36,0.08-0.72,0.2-1.08c-0.01,0.05-0.02,0.1-0.03,0.15
	c-0.12,0.61-0.13,1.23-0.11,1.85c0.01,0.42,0,0.84,0.09,1.24c0.01,0.12,0.02,0.24,0.04,0.35c0,0-0.01,0.01-0.01,0.01
	c0.02,0.12,0,0.08,0.05,0.18c0,0,0.01,0,0.01,0c0,0,0,0,0,0.01c0.01,0.01,0.03,0.01,0.04,0.01c0.02,0.01,0.03,0.02,0.05,0.01
	c0.04-0.01,0.07-0.04,0.07-0.08c0.04-1.11,0.42-2.24,0.81-3.27c0.06-0.16,0.13-0.33,0.19-0.49c0.02,0.19,0.04,0.37,0.07,0.56
	c0.01-0.05,0.02-0.09,0.03-0.12c0.02-0.11,0.04-0.21,0.06-0.32c0,0.13,0.01,0.26,0.01,0.39c0,0.15,0,0.29,0,0.44
	c0,0.07-0.01,0.14-0.02,0.21c-0.01,0.07,0.04,0.1,0.1,0.09c0,0.08,0.01,0.15,0.01,0.23c0.01,0.12,0.21,0.07,0.21-0.03
	c0.01-1.01,0.12-2.04,0.3-3.04C7,29.79,7.03,29.75,7.06,29.7c0.03,0.27,0.07,0.53,0.12,0.79c0,0.17,0.01,0.33,0.04,0.49
	c0.01,0.05,0.04,0.08,0.08,0.08c0.01,0.06,0.03,0.13,0.04,0.19c0.02,0.08,0.04,0.17,0.06,0.26c0.06-0.17,0.12-0.33,0.18-0.49
	c-0.2-1.09-0.05-2.13,0.29-3.14c-0.09,0.45-0.1,0.9-0.08,1.35c-0.01,0.24-0.02,0.49-0.02,0.73c0,0.03,0,0.06,0,0.09
	c-0.02,0.43,0,0.85,0.05,1.28c0,0.16,0,0.3,0.1,0.45c0.04,0.07,0.17,0.01,0.17-0.06c-0.02-0.98,0.19-1.93,0.49-2.85
	c-0.04,0.47-0.03,0.94-0.03,1.41c-0.01,0.08,0.15,0.06,0.17-0.01c0.1-0.42,0.12-0.85,0.16-1.27c0.19-0.79,0.55-1.53,0.94-2.26
	c-0.23,0.73-0.3,1.5-0.31,2.26c0,0.04,0.07,0.03,0.08,0c0.2-0.72,0.35-1.46,0.54-2.18c0.14-0.54,0.45-1.04,0.78-1.53
	c-0.05,0.21-0.09,0.42-0.13,0.63c-0.04,0.26-0.15,0.56-0.11,0.83c0.18-0.18,0.37-0.37,0.58-0.52c0.19-0.44,0.32-0.94,0.51-1.34
	c0.26-0.54,0.7-0.91,1.19-1.24c-0.25,0.42-0.46,0.84-0.61,1.32c-0.04,0.12,0.14,0.12,0.2,0.06c0.67-0.65,1.27-1.25,2.07-1.67
	c-0.54,0.65-0.97,1.41-1.32,2.13c-0.04,0.09,0.02,0.14,0.09,0.14c0.03-0.01,0.05-0.01,0.08-0.01c0.03-0.01,0.05-0.03,0.07-0.05
	c0.67-1.13,1.68-1.9,2.81-2.51c-0.26,0.3-0.53,0.69-0.56,1.06c0,0.07,0.08,0.09,0.13,0.09c0.18-0.02,0.31-0.1,0.45-0.21
	c0.37-0.31,0.77-0.54,1.2-0.75c-0.25,0.37-0.46,0.77-0.63,1.17c-0.1,0.18-0.18,0.37-0.24,0.57c0,0,0,0.01,0,0.01c0,0,0,0.01,0,0.01
	c-0.08,0.25-0.13,0.51-0.15,0.79c0,0.02,0.01,0.04,0.02,0.05c0.09-0.03,0.17-0.07,0.25-0.1c0.53-0.94,1.17-1.72,2.14-2.27
	c0.23-0.13,0.47-0.24,0.7-0.34c-0.11,0.12-0.22,0.24-0.33,0.36c-0.11,0.09-0.22,0.2-0.31,0.32c0,0.01-0.01,0.01-0.01,0.01
	c-0.43,0.39-0.78,0.86-1.01,1.43c0.12-0.05,0.23-0.11,0.35-0.16c0.08-0.15,0.16-0.3,0.24-0.45c0.45-0.57,1.02-0.97,1.65-1.32
	c-0.39,0.36-0.73,0.77-0.95,1.25c-0.02,0.04-0.01,0.08,0.01,0.11c0.15-0.06,0.31-0.13,0.47-0.19c0.05-0.05,0.11-0.1,0.16-0.16
	c0.3-0.31,0.65-0.54,1.02-0.78c0.58-0.37,1.19-0.56,1.83-0.71c-0.02,0.02-0.03,0.03-0.05,0.05c-0.22,0.21-0.75,0.64-0.73,1.01
	c0.24-0.03,0.48-0.06,0.72-0.08c0.51-0.21,1-0.44,1.59-0.52c0.4-0.05,0.79-0.01,1.18,0.02c-0.22,0.11-0.41,0.25-0.55,0.41
	c-0.02,0.03-0.03,0.06-0.03,0.09c0.24,0.01,0.47,0.03,0.71,0.06c0.69-0.09,1.44-0.25,2.08-0.11c-0.06,0.02-0.12,0.04-0.18,0.08
	c-0.1,0.06-0.11,0.18,0.01,0.23c0.34,0.13,0.78,0.05,1.16,0.11c0.42,0.07,0.78,0.15,1.14,0.27c-0.25-0.02-0.5-0.05-0.75-0.09
	c-0.32-0.05-0.64-0.11-0.96-0.13c-0.96-0.07-1.86,0.17-2.75,0.49c-0.14-0.03-0.27-0.07-0.41-0.1c-0.2,0.03-0.42,0.07-0.61,0.1
	c0.11,0.03,0.22,0.06,0.32,0.1c-0.12-0.02-0.25-0.04-0.38-0.06c-0.01,0-0.03-0.01-0.04-0.01c-0.03-0.01-0.05-0.01-0.07-0.01
	c-0.23,0.04-0.41,0.07-0.43,0.08c-0.07,0.01-0.14,0.03-0.21,0.04c0.2,0.1,0.43,0.2,0.66,0.31c0,0-0.01,0-0.01,0
	c-0.29-0.11-0.58-0.22-0.87-0.26c-0.21,0.05-0.42,0.09-0.62,0.15c0,0,0.01,0,0.01,0c0.41,0.03,0.76,0.14,1.09,0.28
	c0,0-0.01,0-0.01,0c-0.04-0.01-0.09-0.03-0.13-0.04c-0.57-0.15-1.19-0.09-1.78-0.02c-0.02,0.01-0.04,0.01-0.06,0.02
	c-0.16,0.05-0.32,0.11-0.48,0.17c0.03,0.02,0.07,0.04,0.11,0.03c0.5-0.04,0.92,0.09,1.33,0.29c-0.28-0.05-0.58-0.07-0.86-0.08
	c-0.52-0.02-1.02,0.15-1.51,0.26c-0.11,0.03-0.22,0.04-0.34,0.06c-0.01,0-0.02,0.01-0.03,0.01c-0.23,0.1-0.47,0.19-0.71,0.27
	c0.32-0.02,0.63-0.02,0.95-0.01c-0.8,0.1-1.54,0.41-2.29,0.66c-0.33,0.05-0.65,0.13-0.94,0.25c-0.13,0.06,0,0.2,0.12,0.17
	c0.33-0.06,0.65-0.15,0.97-0.25c0.29-0.04,0.59-0.07,0.89-0.07c-0.25,0.05-0.5,0.11-0.71,0.17c-0.61,0.17-1.3,0.33-1.95,0.55
	c-0.01,0.01-0.01,0.02-0.02,0.03c-0.42,0.28-0.82,0.59-1.21,0.92c0.49-0.18,0.94-0.4,1.47-0.51c0.56-0.11,1.15-0.16,1.73-0.17
	c-0.55,0.1-1.09,0.23-1.64,0.37c-0.56,0.15-1.07,0.36-1.57,0.62c-0.37,0.19-0.67,0.42-0.98,0.65c0.02,0.03,0.02,0.06-0.02,0.1
	c-0.14,0.13-0.29,0.26-0.44,0.4c0,0.01-0.01,0.01-0.01,0.01c0.04,0.01,0.07,0.01,0.1-0.01c0.14-0.09,0.27-0.18,0.4-0.28
	c0.38-0.21,0.8-0.33,1.24-0.39c-0.24,0.09-0.47,0.19-0.7,0.3c-0.43,0.21-0.75,0.54-1.05,0.87c-0.39,0.42-0.85,0.78-1.24,1.19
	c-0.03,0.04-0.06,0.08-0.09,0.12c-0.02,0.05-0.04,0.09-0.06,0.14c0.03,0.01,0.06,0.02,0.09,0.01c0.58-0.32,1.07-0.73,1.64-1.04
	c0.1-0.06,0.2-0.11,0.31-0.16c-0.29,0.24-0.56,0.5-0.82,0.75c-0.92,0.89-1.47,2.06-2.24,3.06c-0.01,0.03-0.02,0.05-0.03,0.08
	c0.02,0.03,0.08,0.04,0.1,0.01c0.05-0.06,0.1-0.11,0.16-0.17c0.05-0.01,0.1-0.05,0.12-0.13c0.29-0.29,0.59-0.56,0.91-0.81
	c-0.21,0.24-0.41,0.48-0.61,0.71c-0.39,0.44-0.73,0.91-1.03,1.4c-0.03,0.11-0.06,0.22-0.09,0.33l0,0c-0.03,0.11-0.07,0.23-0.1,0.34
	c0.09-0.08,0.18-0.15,0.27-0.23c0.02-0.02,0.05-0.02,0.07-0.03c0.21-0.27,0.42-0.55,0.65-0.81c0.14-0.16,0.3-0.31,0.45-0.46
	c-0.13,0.29-0.21,0.59-0.17,0.83c0.01,0.03,0.03,0.05,0.06,0.07c0.33-0.29,0.68-0.56,1.04-0.82c0.37-0.43,0.71-0.89,1.11-1.28
	c0.42-0.41,0.91-0.76,1.38-1.11c-0.39,0.54-0.67,1.16-0.83,1.79c-0.01,0.03,0,0.05,0.02,0.06c0.24-0.24,0.51-0.46,0.78-0.67
	c0.11-0.13,0.22-0.25,0.33-0.38c-0.07,0.23-0.13,0.45-0.18,0.68c-0.01,0.03-0.02,0.06-0.03,0.09c0.01-0.03,0.02-0.05,0.02-0.07
	c-0.19,0.79-0.29,1.6-0.31,2.4c0,0,0,0-0.01,0c0,0.04,0.01,0.08,0,0.13c0,0.31,0.01,0.62,0.03,0.93c0,0.06,0.01,0.11,0.01,0.17
	c0.03,0.36,0.09,0.71,0.16,1.07c0.01,0.06,0.03,0.12,0.04,0.18c0.06,0.29,0.14,0.58,0.23,0.86c0.03,0.09,0.06,0.18,0.09,0.27
	c0.12,0.34,0.25,0.67,0.4,1c0.02,0.07,0.04,0.14,0.06,0.2c0.06,0.1,0.12,0.2,0.18,0.3c0.14,0.19,0.29,0.37,0.46,0.53
	c0.01-0.02,0.01-0.03,0.01-0.05c0-0.02-0.01-0.04-0.02-0.06c-0.01-0.01-0.02-0.02-0.02-0.03c-0.25-0.38-0.39-0.86-0.53-1.29
	c-0.09-0.26-0.18-0.54-0.26-0.83c0.14,0.27,0.29,0.54,0.42,0.82c0.09,0.19,0.19,0.46,0.37,0.62c-0.11-0.42-0.18-0.84-0.27-1.27
	c-0.08-0.34-0.15-0.69-0.2-1.03c-0.06-0.2-0.11-0.4-0.15-0.59c-0.07-0.3-0.13-0.63-0.18-0.96c0.02,0.07,0.06,0.13,0.13,0.18
	c0.07,0.05,0.15,0.01,0.19-0.06c0.09-0.16,0.09-0.3,0.09-0.48c-0.01-0.47,0.1-0.96,0.18-1.42c0.01-0.07,0.02-0.14,0.04-0.2
	c0.05,0.25,0.11,0.51,0.17,0.76c0.19,0.79,0.33,1.78,0.86,2.42c0.01,0.01,0.01,0.01,0.02,0.01c0.02-0.23,0.05-0.46,0.06-0.7
	c0.02-0.26,0.04-0.52,0.05-0.78c-0.01-0.07-0.02-0.14-0.02-0.21c-0.06-0.67-0.11-1.35-0.15-2.02c-0.02-0.35-0.01-0.7,0.01-1.05
	c0.04,0.24,0.08,0.49,0.12,0.73c0.1,0.54,0.23,1.07,0.41,1.59c0.09,0.28,0.06,0.5,0.31,0.67c0,0.02,0,0.03,0,0.05
	c0.03,0,0.06-0.01,0.08-0.03c0.21-0.29,0.4-0.6,0.58-0.9c0.06,0.1,0.12,0.19,0.18,0.28c-0.4,1.17-0.47,2.44-0.76,3.64
	c0,0.03,0,0.06,0,0.09c0.03,0.02,0.08,0.01,0.1-0.03c0.02-0.08,0.05-0.15,0.08-0.23c0.05-0.03,0.07-0.08,0.06-0.17
	c0.15-0.39,0.32-0.78,0.5-1.15c-0.09,0.32-0.18,0.63-0.27,0.93c-0.18,0.59-0.3,1.18-0.39,1.78c0.01,0.12,0.03,0.24,0.04,0.36l0,0
	c0.01,0.13,0.03,0.25,0.04,0.38c0.05-0.11,0.1-0.22,0.16-0.33c0.01-0.03,0.03-0.04,0.05-0.05c0.08-0.35,0.16-0.71,0.27-1.05
	c0.07-0.21,0.14-0.42,0.23-0.63c-0.01,0.34,0.03,0.67,0.16,0.89c0.02,0.03,0.05,0.04,0.08,0.05c0.19-0.41,0.4-0.81,0.61-1.21
	c0.17-0.57,0.29-1.16,0.5-1.7c0.22-0.57,0.52-1.09,0.81-1.63c-0.14,0.69-0.15,1.41-0.06,2.1c0,0.03,0.02,0.05,0.04,0.06
	c0.12-0.33,0.28-0.65,0.44-0.96c0.16-0.56,0.33-1.12,0.55-1.68c0.09-0.23,0.2-0.46,0.3-0.7c-0.1,0.54-0.14,1.1-0.01,1.54
	c0.04-0.12,0.1-0.23,0.15-0.34c-0.02,0.23-0.06,0.47-0.07,0.7c0.21-0.47,0.35-0.94,0.64-1.38c0.1-0.16,0.23-0.31,0.35-0.47
	c0,0.12,0,0.23,0,0.35c-0.04,0.08-0.09,0.15-0.14,0.22c-0.28,0.49-0.46,0.99-0.62,1.53c-0.12,0.4-0.16,0.78-0.2,1.17
	c0.03,0.01,0.06,0.04,0.06,0.09c0,0.2-0.01,0.4-0.01,0.6c0,0.01,0,0.02,0,0.02c0.03-0.02,0.06-0.04,0.06-0.07
	c0.04-0.16,0.05-0.33,0.07-0.49c0.1-0.42,0.31-0.79,0.57-1.14c-0.1,0.23-0.18,0.46-0.26,0.7c-0.14,0.45-0.11,0.93-0.08,1.39
	c0.04,0.59-0.01,1.18,0.02,1.76c0.01,0.05,0.02,0.11,0.03,0.16c0.02,0.05,0.04,0.1,0.06,0.15c0.03-0.01,0.06-0.03,0.06-0.05
	c0.16-0.63,0.2-1.29,0.36-1.92c0.03-0.11,0.06-0.22,0.1-0.33c-0.03,0.38-0.02,0.76-0.01,1.13c0.03,1.32,0.5,2.61,0.7,3.91
	c0.01,0.03,0.02,0.06,0.04,0.08c0.03,0.01,0.08-0.02,0.08-0.06c0-0.08,0-0.16-0.01-0.24c0.03-0.04,0.03-0.1-0.01-0.18
	c-0.01-0.42,0-0.83,0.03-1.25c0.04,0.33,0.08,0.65,0.11,0.96c0.06,0.61,0.17,1.2,0.32,1.79c0.06,0.11,0.11,0.21,0.17,0.32
	c0,0,0,0,0,0c0.06,0.12,0.12,0.23,0.18,0.34c0-0.12,0.01-0.24,0.02-0.36c0-0.03,0.01-0.05,0.03-0.07c-0.06-0.36-0.12-0.71-0.15-1.07
	c-0.02-0.22-0.03-0.44-0.03-0.66c0.12,0.32,0.28,0.61,0.49,0.77c0.03,0.02,0.06,0.02,0.09,0.02c0.02-0.45,0.06-0.9,0.11-1.34
	c-0.06-0.59-0.17-1.18-0.18-1.75c-0.01-0.6,0.07-1.2,0.14-1.8c0.13,0.69,0.39,1.36,0.74,1.96c0.01,0.02,0.04,0.04,0.06,0.04
	c-0.01-0.35,0.02-0.7,0.04-1.05c-0.07-0.58-0.12-1.15-0.12-1.76c0-0.07,0-0.14,0-0.22c0.03,0.1,0.05,0.21,0.08,0.31
	c0.01-0.16,0.01-0.33,0.02-0.49c0.08,0.28,0.17,0.54,0.3,0.77c0.04,0.36,0.12,0.7,0.21,1.04c0.03,0,0.07,0.01,0.09,0.06
	c0.07,0.19,0.13,0.38,0.2,0.56c0.01,0.01,0.01,0.01,0.01,0.02c0.02-0.03,0.04-0.06,0.03-0.09c-0.02-0.17-0.07-0.32-0.11-0.48
	c-0.05-0.43,0.01-0.84,0.13-1.25c-0.01,0.24-0.01,0.49,0,0.74c0.03,0.47,0.23,0.91,0.42,1.33c0.25,0.54,0.41,1.1,0.65,1.64
	c0.03,0.05,0.06,0.09,0.09,0.14c0.04,0.04,0.07,0.08,0.11,0.12c0.02-0.02,0.04-0.05,0.04-0.07c-0.07-0.65-0.27-1.27-0.34-1.92
	c-0.01-0.11-0.02-0.23-0.03-0.34c0.11,0.36,0.25,0.72,0.39,1.06c0.49,1.22,1.4,2.27,2.05,3.42c0.02,0.02,0.04,0.04,0.07,0.06
	c0.03-0.01,0.07-0.05,0.05-0.08c-0.03-0.07-0.06-0.15-0.09-0.22c0.01-0.05-0.01-0.11-0.07-0.17c-0.16-0.39-0.3-0.78-0.41-1.18
	c0.15,0.3,0.3,0.58,0.44,0.87c0.14,0.29,0.3,0.57,0.47,0.85c0,0.17,0,0.33,0,0.51c-0.04,2.56-0.13,4.99-0.01,7.42
	c0.13,2.64,0.35,5.08,0.25,7.96c-0.02,0.41-0.04,0.82-0.06,1.23c-0.18,0.06-0.37,0.12-0.54,0.2c-0.26,0.12-0.49,0.26-0.72,0.41
	c-0.27,0.07-0.54,0.18-0.78,0.31c0.05-0.04,0.11-0.07,0.16-0.11c0.27-0.16,0.56-0.29,0.82-0.46c0.02-0.01-0.01-0.03-0.02-0.02
	c-0.72,0.27-1.31,0.65-1.86,1.13c-0.05,0.04-0.1,0.09-0.15,0.13c-0.28,0.16-0.54,0.34-0.79,0.53c0.21-0.21,0.43-0.42,0.66-0.63
	c0.02-0.02,0.01-0.03,0-0.04c-0.2,0.14-0.42,0.26-0.62,0.39c-0.27,0.24-0.51,0.5-0.75,0.77c0.01-0.07,0.02-0.15,0.03-0.22
	c-0.05,0.06-0.1,0.12-0.15,0.18c0.05-0.08,0.09-0.15,0.13-0.23c0.01-0.01,0.01-0.01,0.02-0.02c0.01-0.02,0.02-0.03,0.02-0.05
	c0.02-0.16,0.04-0.29,0.04-0.3c0.01-0.05,0.01-0.1,0.01-0.15c-0.13,0.11-0.26,0.24-0.41,0.37c0.16-0.16,0.32-0.33,0.43-0.52
	c0.02-0.15,0.03-0.3,0.04-0.45c0,0,0,0,0,0c-0.13,0.29-0.32,0.52-0.54,0.71c0.05-0.05,0.1-0.1,0.14-0.16
	c0.24-0.33,0.35-0.75,0.43-1.15c0-0.02,0-0.03,0-0.05c0-0.12-0.01-0.24-0.02-0.36c-0.02,0.01-0.05,0.03-0.05,0.06
	c-0.08,0.34-0.28,0.57-0.52,0.78c0.1-0.17,0.18-0.36,0.26-0.54c0.13-0.33,0.12-0.71,0.15-1.06c0.01-0.08,0.02-0.16,0.04-0.23
	c0-0.01,0-0.01,0-0.02c-0.02-0.18-0.03-0.36-0.04-0.54c-0.06,0.21-0.13,0.42-0.21,0.63c0,0,0,0,0,0c0.11-0.55,0.05-1.12,0.04-1.68
	c0.04-0.23,0.05-0.47,0.03-0.68c-0.01-0.1-0.15-0.06-0.16,0.02c-0.03,0.23-0.04,0.47-0.04,0.71c-0.04,0.2-0.09,0.4-0.15,0.6
	c0.02-0.18,0.03-0.35,0.04-0.51c0.01-0.44,0.06-0.94,0.04-1.43c-0.01-0.01-0.01-0.01-0.02-0.03c-0.11-0.36-0.25-0.71-0.41-1.05
	c0.02,0.37,0.08,0.72,0.04,1.1c-0.04,0.4-0.15,0.79-0.27,1.17c0.05-0.39,0.08-0.78,0.1-1.17c0.02-0.41-0.03-0.8-0.1-1.2
	c-0.05-0.29-0.16-0.56-0.26-0.83c-0.03,0-0.05-0.01-0.07-0.04c-0.07-0.13-0.13-0.27-0.2-0.4c0-0.01-0.01-0.01-0.01-0.01
	c-0.01,0.02-0.02,0.05-0.02,0.07c0.03,0.12,0.07,0.23,0.12,0.34c0.07,0.3,0.06,0.61,0.01,0.92c-0.01-0.18-0.03-0.36-0.06-0.54
	c-0.06-0.34-0.24-0.64-0.42-0.94c-0.22-0.37-0.39-0.78-0.61-1.15c-0.02-0.03-0.05-0.06-0.07-0.09c-0.03-0.03-0.06-0.05-0.09-0.08
	c-0.02,0.01-0.03,0.04-0.03,0.05c0.1,0.47,0.3,0.9,0.41,1.37c0.02,0.08,0.03,0.16,0.05,0.24c-0.11-0.26-0.24-0.51-0.37-0.75
	c-0.46-0.86-1.21-1.55-1.78-2.34c-0.02-0.02-0.03-0.03-0.05-0.04c-0.03,0.01-0.05,0.04-0.03,0.06c0.03,0.05,0.06,0.1,0.09,0.15
	c-0.01,0.04,0.01,0.08,0.07,0.12c0.15,0.27,0.28,0.55,0.4,0.83c-0.13-0.2-0.27-0.4-0.39-0.6c-0.24-0.38-0.52-0.74-0.81-1.07
	c-0.15-0.11-0.3-0.22-0.46-0.32c0.04,0.08,0.07,0.16,0.11,0.24c0.01,0.02,0.01,0.04,0,0.05c0.16,0.22,0.32,0.43,0.46,0.65
	c0.09,0.14,0.17,0.28,0.24,0.43c-0.18-0.17-0.39-0.31-0.58-0.35c-0.02-0.01-0.05,0-0.07,0.02c0.14,0.3,0.26,0.6,0.38,0.91
	c0.24,0.37,0.51,0.72,0.71,1.09c0.21,0.39,0.36,0.81,0.52,1.22c-0.32-0.41-0.72-0.77-1.15-1.05c-0.02-0.01-0.04-0.01-0.05-0.01
	c0.13,0.22,0.23,0.46,0.32,0.7c0.24,0.36,0.47,0.72,0.68,1.11c0.08,0.16,0.16,0.33,0.25,0.5c-0.25-0.31-0.55-0.61-0.87-0.76
	c0.11,0.19,0.18,0.41,0.27,0.61c0.01,0.02,0.01,0.03,0,0.05c0.16,0.2,0.31,0.4,0.44,0.62c0.12,0.22,0.24,0.44,0.36,0.66
	c-0.37-0.36-0.82-0.67-1.17-1.01c-0.03-0.03-0.06-0.02-0.08-0.01c0.06,0.13,0.12,0.26,0.18,0.39c0.35,0.47,0.71,0.93,1.03,1.42
	c-0.35-0.28-0.64-0.64-1.03-0.88c-0.02-0.01-0.04-0.01-0.06-0.01c0.11,0.28,0.28,0.54,0.44,0.8c0.01,0.02,0.01,0.04,0.01,0.05
	c0.15,0.19,0.31,0.37,0.45,0.55c0.1,0.13,0.19,0.27,0.28,0.41c-0.03-0.02-0.05-0.04-0.08-0.06c-0.29-0.2-0.53-0.42-0.75-0.69
	c-0.01-0.02-0.03-0.02-0.05-0.02c0.08,0.17,0.15,0.35,0.23,0.53c0.28,0.44,0.57,0.89,0.86,1.33c0,0.01,0.01,0.02,0.02,0.03
	c-0.36-0.21-0.64-0.5-0.84-0.87c-0.02-0.03-0.04-0.02-0.07,0c0.09,0.22,0.19,0.45,0.32,0.66c0.01,0.01,0.01,0.03,0.01,0.04
	c0.15,0.27,0.31,0.54,0.48,0.8c0.07,0.11,0.14,0.22,0.21,0.32c-0.08-0.07-0.16-0.14-0.24-0.22c-0.2-0.21-0.36-0.47-0.6-0.64
	c0.16,0.52,0.4,1.01,0.71,1.47c0.11,0.12,0.23,0.24,0.36,0.34c0.12,0.22,0.26,0.44,0.41,0.65c-0.13-0.05-0.26-0.11-0.38-0.18
	c-0.05-0.06-0.1-0.13-0.15-0.19c-1.02-1.22-2.24-2.51-3.78-3.26c-0.37-0.18-0.76-0.34-1.16-0.47c-0.14-0.05-0.28-0.08-0.42-0.12
	c-0.27-0.08-0.53-0.16-0.8-0.22c-0.17-0.04-0.35-0.06-0.52-0.09c-0.24-0.04-0.49-0.09-0.74-0.11c-0.19-0.02-0.38-0.02-0.57-0.03
	c-0.19-0.01-0.38-0.03-0.57-0.03c0.07,0,0.14,0.01,0.21,0.02c-0.68-0.01-1.35,0.04-2.01,0.15c0,0,0-0.01,0-0.01
	c-0.32,0.06-0.64,0.13-0.95,0.22c-0.08,0.02-0.15,0.05-0.23,0.08c-0.29,0.09-0.58,0.2-0.86,0.32c-0.1,0.04-0.19,0.08-0.28,0.13
	c-0.34,0.16-0.67,0.34-0.98,0.54c-0.05,0.02-0.09,0.04-0.14,0.07c-0.07,0.05-0.13,0.1-0.19,0.15c-0.12,0.12-0.23,0.24-0.32,0.36
	c0.01,0,0.02,0,0.04,0c0.02-0.01,0.03-0.01,0.04-0.02c0.01,0,0.01-0.01,0.01-0.02c0.25-0.21,0.58-0.37,0.88-0.52
	c0.18-0.09,0.38-0.19,0.58-0.28c-0.18,0.13-0.36,0.26-0.54,0.39c-0.13,0.08-0.32,0.19-0.41,0.32c0.29-0.13,0.6-0.23,0.9-0.36
	c0.25-0.1,0.49-0.19,0.74-0.28c0.14-0.07,0.28-0.13,0.42-0.18c0.22-0.09,0.45-0.17,0.69-0.26c-0.05,0.02-0.09,0.06-0.11,0.11
	c-0.02,0.05,0.02,0.1,0.08,0.11c0.14,0.03,0.24,0.01,0.38-0.02c0.35-0.08,0.74-0.08,1.1-0.09c0.05,0,0.11-0.01,0.16-0.01
	c-0.18,0.07-0.36,0.14-0.54,0.22c-0.56,0.24-1.28,0.47-1.68,0.9c0,0,0,0.01-0.01,0.01c0.18-0.02,0.36-0.04,0.54-0.06
	c0.2-0.03,0.4-0.05,0.59-0.08c0.05-0.02,0.1-0.03,0.16-0.05c0.5-0.14,0.99-0.27,1.49-0.39c0.26-0.06,0.53-0.11,0.79-0.15
	c-0.18,0.06-0.36,0.12-0.53,0.19c-0.39,0.14-0.77,0.31-1.13,0.49c-0.2,0.1-0.37,0.11-0.45,0.31c0,0.01,0,0.02,0,0.03
	c0.4-0.12,0.8-0.21,1.22-0.27c0.03,0,0.05,0,0.06,0.02c0.19-0.06,0.37-0.12,0.56-0.17c0.07-0.02,0.14-0.03,0.2-0.05
	c-0.61,0.26-1.33,0.65-1.71,1.13c-0.03,0.04,0,0.08,0.04,0.1c0.25-0.07,0.5-0.15,0.75-0.22c0.33-0.16,0.7-0.28,1.04-0.4
	c0.25-0.09,0.5-0.17,0.75-0.24c-0.1,0.06-0.2,0.11-0.29,0.18c-0.3,0.2-0.75,0.41-0.97,0.68c-0.01,0.01-0.01,0.02-0.01,0.02
	c0.29-0.13,0.64-0.17,0.93-0.28c0.6-0.22,1.18-0.46,1.84-0.51c0.03,0,0.05,0.01,0.06,0.02c0.25-0.05,0.5-0.09,0.74-0.12
	c-0.01,0.01-0.02,0.03-0.03,0.04c-0.02,0.04,0.01,0.09,0.05,0.11c-0.18,0.04-0.35,0.09-0.53,0.14c-0.08,0.02,0,0.12,0.06,0.12
	c0.61-0.04,1.19,0.01,1.75,0.15c-0.35,0.04-0.7,0.1-1.04,0.19c-0.79,0.21-1.61,0.43-2.23,0.9c-0.01,0.01-0.01,0.02-0.02,0.03
	c0.54-0.16,1.1-0.27,1.67-0.28c0.73-0.15,1.46-0.24,2.21-0.14c-0.11,0.02-0.22,0.04-0.33,0.06c-0.54,0.11-1.02,0.26-1.45,0.57
	c-0.31,0.23-0.58,0.48-0.89,0.7c-0.61-0.16-1.21-0.24-1.86-0.24c-0.02,0-0.03,0.03-0.01,0.04c0.35,0.07,0.72,0.09,1.08,0.15
	c0.08,0.01,0.15,0.03,0.23,0.05c-0.31-0.03-0.64-0.04-0.95-0.01c-0.31-0.06-0.63-0.12-0.95-0.14c-0.31-0.02-0.61,0-0.91,0.01
	c-0.16,0.03-0.32,0.06-0.48,0.09c0.1,0.03,0.2,0.04,0.31,0.04c-0.01,0.01-0.02,0.02-0.01,0.03c-0.18-0.01-0.37-0.01-0.55,0
	c-0.06,0-0.12,0.01-0.17,0.01c-0.25,0.06-0.5,0.13-0.74,0.21c0.25,0,0.52-0.07,0.75-0.08c0.45-0.03,0.89,0.02,1.34,0.07
	c-0.1,0.01-0.2,0.02-0.3,0.04c-0.14,0-0.27-0.01-0.41,0c-0.8,0.01-1.76,0.15-2.46,0.54c-0.04,0.02-0.01,0.05,0.03,0.04
	c0.12-0.05,0.24-0.08,0.36-0.12c-0.75,0.26-1.56,0.62-2.1,1.21c-0.03,0.03,0.03,0.05,0.06,0.03c0.37-0.27,0.8-0.53,1.26-0.76
	c-0.15,0.09-0.29,0.19-0.43,0.3c-0.09,0.05-0.17,0.11-0.25,0.16c-0.25,0.15-0.48,0.31-0.7,0.5c-0.17,0.14-0.29,0.42-0.48,0.52
	c-0.03,0.02,0,0.05,0.02,0.04c0.11-0.04,0.17-0.13,0.25-0.21c0.18-0.19,0.38-0.34,0.6-0.49c-0.07,0.07-0.14,0.14-0.2,0.21
	c-0.19,0.14-0.38,0.28-0.56,0.44c-0.39,0.34-0.92,0.79-1.03,1.32c0,0,0,0,0,0.01c-0.25,0.31-0.47,0.65-0.52,1
	c-0.19,0.27-0.34,0.56-0.39,0.87c-0.01,0.05,0.09,0.04,0.1,0c0.08-0.35,0.31-0.68,0.56-0.99c-0.04,0.06-0.07,0.12-0.11,0.18
	c-0.26,0.43-0.67,1.06-0.59,1.59c0.01,0.04,0.08,0.03,0.09,0c0.01-0.02,0.01-0.03,0.01-0.04c0.03-0.23,0.1-0.45,0.2-0.67
	c-0.01,0.03-0.02,0.06-0.03,0.09c-0.12,0.38-0.17,0.77-0.2,1.17c-0.02,0.27-0.06,0.53-0.03,0.8c-0.01,0.08-0.01,0.15,0,0.22
	c0,0,0,0.01,0,0.01c0,0.08-0.01,0.06,0.02,0.12c0,0,0.01,0,0.01,0c0,0,0,0,0,0c0,0.01,0.02,0.01,0.03,0.01
	c0.01,0.01,0.02,0.01,0.03,0.01c0.02,0,0.05-0.02,0.05-0.04c0.1-0.7,0.42-1.39,0.75-2.02c0.05-0.1,0.1-0.2,0.16-0.3
	c0,0.12,0,0.24,0.01,0.36c0.01-0.03,0.02-0.05,0.03-0.07c0.02-0.07,0.04-0.13,0.06-0.2c-0.01,0.08-0.01,0.17-0.02,0.25
	c-0.01,0.09-0.02,0.19-0.03,0.28c-0.01,0.05-0.02,0.09-0.03,0.13C9.43,71.88,9.46,71.9,9.5,71.9c0,0.05-0.01,0.1-0.01,0.15
	c0,0.07,0.13,0.06,0.14-0.01c0.08-0.64,0.22-1.29,0.4-1.91c0.02-0.03,0.04-0.05,0.07-0.08c0,0.17,0.01,0.34,0.02,0.51
	c-0.01,0.11-0.02,0.21-0.01,0.31c0,0.03,0.02,0.05,0.05,0.06c0,0.04,0.01,0.08,0.01,0.13c0,0.06,0.01,0.11,0.02,0.17
	c0.05-0.1,0.1-0.2,0.15-0.3c-0.05-0.71,0.12-1.36,0.41-1.97c-0.09,0.28-0.13,0.56-0.15,0.85c-0.03,0.15-0.05,0.31-0.06,0.46
	c0,0.02,0,0.04,0,0.06c-0.04,0.27-0.06,0.54-0.06,0.82c-0.01,0.1-0.02,0.19,0.03,0.29c0.02,0.05,0.11,0.02,0.11-0.03
	c0.06-0.62,0.25-1.21,0.51-1.78c-0.06,0.29-0.09,0.6-0.12,0.89c-0.01,0.05,0.09,0.05,0.11,0.01c0.09-0.26,0.14-0.53,0.19-0.8
	c0.18-0.49,0.46-0.93,0.76-1.37c-0.2,0.45-0.3,0.93-0.36,1.41c0,0.03,0.04,0.03,0.05,0c0.18-0.44,0.32-0.9,0.5-1.35
	c0.13-0.33,0.36-0.63,0.6-0.91c-0.05,0.13-0.09,0.26-0.13,0.39c-0.05,0.16-0.14,0.35-0.13,0.52c0.13-0.1,0.26-0.21,0.4-0.29
	c0.15-0.27,0.27-0.58,0.42-0.81c0.2-0.32,0.51-0.53,0.85-0.7c-0.19,0.25-0.35,0.5-0.48,0.79c-0.03,0.07,0.08,0.09,0.12,0.05
	c0.47-0.37,0.9-0.71,1.43-0.91c-0.39,0.37-0.71,0.82-0.99,1.26c-0.03,0.05,0,0.09,0.05,0.1c0.02,0,0.03,0,0.05,0
	c0.02-0.01,0.03-0.01,0.05-0.03c0.5-0.67,1.2-1.09,1.96-1.4c-0.19,0.17-0.39,0.4-0.43,0.63c-0.01,0.04,0.04,0.06,0.08,0.06
	c0.11,0,0.2-0.04,0.3-0.1c0.26-0.17,0.53-0.29,0.82-0.39c-0.19,0.21-0.35,0.46-0.48,0.7c-0.07,0.11-0.14,0.22-0.19,0.34
	c0,0,0,0.01,0,0.01c0,0,0,0,0,0.01c-0.07,0.16-0.12,0.32-0.15,0.49c0,0.01,0,0.02,0.01,0.03c0.06-0.02,0.11-0.03,0.17-0.05
	c0.4-0.56,0.86-1.01,1.52-1.29c0.15-0.07,0.31-0.12,0.47-0.17c-0.08,0.07-0.16,0.14-0.23,0.21c-0.08,0.05-0.15,0.11-0.22,0.18
	c0,0-0.01,0.01-0.01,0.01c-0.3,0.22-0.56,0.49-0.74,0.84c0.08-0.03,0.16-0.05,0.24-0.08c0.06-0.09,0.12-0.18,0.18-0.27
	c0.32-0.33,0.72-0.55,1.14-0.73c-0.27,0.2-0.52,0.44-0.69,0.73c-0.02,0.03-0.01,0.05,0,0.07c0.1-0.03,0.21-0.06,0.31-0.09
	c0.04-0.03,0.07-0.06,0.11-0.09c0.21-0.18,0.45-0.3,0.7-0.42c0.4-0.19,0.8-0.27,1.21-0.32c-0.01,0.01-0.02,0.02-0.04,0.03
	c-0.15,0.12-0.52,0.36-0.53,0.59c0.16,0,0.31,0,0.47,0c0.34-0.1,0.67-0.21,1.05-0.22c0.26-0.01,0.5,0.05,0.74,0.1
	c-0.14,0.05-0.28,0.13-0.38,0.22c-0.01,0.01-0.02,0.03-0.03,0.05c0.15,0.03,0.3,0.05,0.44,0.09c0.44-0.01,0.93-0.06,1.33,0.08
	c-0.04,0.01-0.08,0.02-0.12,0.04c-0.06,0.03-0.08,0.11-0.01,0.15c0.21,0.11,0.5,0.09,0.73,0.15c0.23,0.06,0.43,0.13,0.63,0.22
	c-0.01,0-0.01,0.01-0.02,0.01c-0.33-0.07-0.64-0.18-0.98-0.24c-0.6-0.11-1.2-0.02-1.78,0.12c-0.08-0.03-0.17-0.07-0.25-0.09
	c-0.13,0.01-0.27,0.01-0.4,0.02c0.07,0.03,0.13,0.06,0.2,0.09c-0.08-0.02-0.16-0.04-0.24-0.06c-0.01,0-0.02-0.01-0.03-0.01
	c-0.02-0.01-0.03-0.01-0.05-0.01c-0.15,0.01-0.27,0.02-0.28,0.02c-0.05,0-0.09,0.01-0.14,0.01c0.12,0.08,0.26,0.16,0.4,0.25
	c0,0,0,0,0,0c-0.18-0.09-0.35-0.18-0.54-0.23c-0.14,0.01-0.27,0.03-0.41,0.05c0,0,0,0,0,0c0.26,0.05,0.48,0.14,0.68,0.26
	c0,0,0,0,0,0c-0.03-0.01-0.06-0.03-0.09-0.04c-0.36-0.14-0.75-0.14-1.13-0.14c-0.01,0-0.03,0.01-0.04,0.01
	c-0.11,0.02-0.21,0.05-0.32,0.08c0.02,0.01,0.04,0.03,0.07,0.03c0.32,0.01,0.58,0.12,0.82,0.28c-0.18-0.05-0.36-0.08-0.54-0.11
	c-0.32-0.05-0.66,0.02-0.98,0.06c-0.07,0.01-0.14,0.01-0.22,0.01c-0.01,0-0.01,0.01-0.02,0.01c-0.16,0.05-0.31,0.09-0.47,0.12
	c0.21,0.01,0.41,0.03,0.61,0.06h0c-0.52,0-1.01,0.15-1.5,0.26c-0.22,0.01-0.43,0.04-0.62,0.09c-0.09,0.03-0.01,0.13,0.06,0.12
	c0.21-0.02,0.43-0.05,0.64-0.09c0.19-0.01,0.38,0,0.57,0.02c-0.17,0.01-0.32,0.03-0.46,0.06c-0.4,0.06-0.85,0.11-1.28,0.21
	c0,0.01-0.01,0.01-0.02,0.02c-0.29,0.15-0.56,0.32-0.83,0.5c0.32-0.08,0.62-0.19,0.97-0.22c0.37-0.03,0.74-0.02,1.11,0.01
	c-0.36,0.02-0.71,0.07-1.07,0.12c-0.37,0.05-0.7,0.15-1.04,0.28c-0.25,0.09-0.46,0.22-0.67,0.34c0.01,0.02,0.01,0.04-0.02,0.06
	c-0.1,0.07-0.2,0.14-0.3,0.22c0,0-0.01,0.01-0.01,0.01c0.02,0.01,0.05,0.01,0.06,0c0.1-0.05,0.19-0.1,0.28-0.15
	c0.25-0.11,0.53-0.15,0.82-0.16c-0.16,0.04-0.31,0.09-0.46,0.14c-0.29,0.1-0.51,0.29-0.73,0.48c-0.28,0.24-0.59,0.44-0.87,0.67
	c-0.02,0.03-0.04,0.05-0.07,0.07c-0.02,0.03-0.03,0.06-0.05,0.08c0.02,0.01,0.04,0.02,0.05,0.01c0.39-0.16,0.73-0.39,1.12-0.55
	c0.07-0.03,0.14-0.05,0.21-0.08c-0.2,0.13-0.39,0.27-0.57,0.42c-0.65,0.5-1.08,1.21-1.64,1.79c-0.01,0.02-0.02,0.03-0.02,0.05
	c0.01,0.02,0.05,0.03,0.06,0.02c0.04-0.03,0.08-0.06,0.11-0.09c0.03,0,0.06-0.02,0.09-0.07c0.2-0.16,0.41-0.31,0.64-0.45
	c-0.15,0.14-0.29,0.28-0.44,0.41c-0.28,0.25-0.53,0.53-0.75,0.82c-0.03,0.07-0.06,0.13-0.08,0.2l0,0c-0.03,0.07-0.06,0.14-0.09,0.21
	c0.06-0.04,0.13-0.09,0.19-0.12c0.01-0.01,0.03-0.01,0.04-0.01c0.15-0.16,0.3-0.32,0.47-0.47c0.1-0.09,0.21-0.18,0.32-0.26
	c-0.1,0.17-0.18,0.36-0.17,0.52c0,0.02,0.02,0.04,0.03,0.05c0.23-0.16,0.47-0.31,0.72-0.45c0.26-0.25,0.51-0.52,0.79-0.74
	c0.29-0.23,0.63-0.42,0.96-0.61c-0.29,0.32-0.51,0.69-0.65,1.08c-0.01,0.01,0,0.03,0,0.04c0.17-0.14,0.36-0.25,0.55-0.37
	c0.08-0.08,0.17-0.16,0.26-0.24c-0.01,0.02-0.01,0.04-0.02,0.06c-0.06,0.15-0.13,0.29-0.19,0.44c0.02-0.06,0.05-0.11,0.08-0.16
	c-0.2,0.53-0.34,1.07-0.41,1.62c0,0-0.01,0-0.01,0c-0.04,0.27-0.05,0.54-0.06,0.82c0,0.06,0.01,0.12,0.01,0.18
	c0,0.26,0.03,0.53,0.06,0.79c0.01,0.09,0.02,0.17,0.04,0.26c0.06,0.32,0.13,0.63,0.24,0.94c0.01,0.05,0.01,0.09,0.02,0.13
	c0.03,0.07,0.06,0.13,0.09,0.2c0.08,0.13,0.16,0.25,0.25,0.37c0.01-0.01,0.01-0.02,0.01-0.03c0-0.01,0-0.03-0.01-0.04
	c0-0.01-0.01-0.01-0.01-0.02c-0.13-0.26-0.18-0.57-0.24-0.86c-0.03-0.17-0.08-0.36-0.1-0.55c0.07,0.18,0.15,0.37,0.21,0.55
	c0.04,0.13,0.09,0.31,0.19,0.42c-0.04-0.27-0.05-0.55-0.08-0.82c-0.03-0.22-0.05-0.45-0.05-0.67c-0.02-0.13-0.04-0.26-0.06-0.38
	c-0.02-0.2-0.04-0.41-0.05-0.62c0.01,0.04,0.03,0.09,0.07,0.12c0.04,0.04,0.1,0.02,0.13-0.02c0.07-0.1,0.08-0.18,0.09-0.3
	c0.02-0.3,0.13-0.6,0.21-0.89c0.01-0.04,0.03-0.08,0.04-0.13c0.01,0.17,0.03,0.33,0.05,0.5c0.07,0.51,0.08,1.15,0.38,1.6
	c0,0,0.01,0.01,0.01,0.01c0.03-0.15,0.06-0.29,0.09-0.44c0.03-0.16,0.06-0.33,0.09-0.49c0-0.05,0-0.09,0-0.14
	c0.01-0.43,0.03-0.86,0.05-1.29c0.01-0.22,0.04-0.45,0.08-0.66c0.01,0.16,0.02,0.32,0.03,0.47c0.03,0.35,0.07,0.7,0.14,1.04
	c0.04,0.18,0,0.32,0.15,0.45c0,0.01,0,0.02,0,0.03c0.02,0,0.04,0,0.05-0.01c0.16-0.17,0.29-0.35,0.43-0.53
	c0.03,0.07,0.06,0.13,0.09,0.19c-0.33,0.71-0.47,1.52-0.74,2.26c0,0.02,0,0.04,0,0.06c0.02,0.01,0.05,0.01,0.06-0.01
	c0.02-0.05,0.04-0.09,0.07-0.14c0.03-0.01,0.05-0.05,0.05-0.1c0.12-0.24,0.25-0.47,0.4-0.69c-0.08,0.19-0.16,0.39-0.24,0.57
	c-0.15,0.36-0.27,0.73-0.37,1.11c0,0.08,0,0.15,0,0.23c0,0.08,0,0.16,0,0.25c0.04-0.07,0.08-0.13,0.12-0.2
	c0.01-0.02,0.02-0.02,0.03-0.03c0.08-0.22,0.15-0.44,0.25-0.65c0.06-0.13,0.12-0.26,0.19-0.38c-0.03,0.21-0.03,0.43,0.04,0.58
	c0.01,0.02,0.03,0.03,0.05,0.04c0.15-0.25,0.31-0.49,0.48-0.73c0.15-0.35,0.27-0.71,0.44-1.04c0.18-0.35,0.41-0.66,0.63-0.98
	c-0.14,0.43-0.2,0.88-0.18,1.33c0,0.02,0.01,0.03,0.02,0.04c0.1-0.2,0.22-0.39,0.35-0.58c0.14-0.35,0.29-0.69,0.47-1.03
	c0.07-0.14,0.16-0.28,0.24-0.43c-0.1,0.33-0.16,0.69-0.11,0.98c0.03-0.07,0.08-0.14,0.12-0.21c-0.03,0.15-0.07,0.29-0.1,0.44
	c0.17-0.28,0.29-0.57,0.5-0.83c0.07-0.09,0.17-0.16,0.25-0.24c-0.01,0.06-0.02,0.13-0.02,0.19c-0.03,0.05-0.07,0.09-0.1,0.13
	c-0.21,0.29-0.36,0.6-0.5,0.93c-0.1,0.24-0.15,0.48-0.21,0.73c0.02,0.01,0.03,0.03,0.03,0.06c-0.01,0.13-0.04,0.25-0.05,0.38
	c0,0,0,0.01,0,0.01c0.02-0.01,0.04-0.02,0.05-0.04c0.03-0.1,0.06-0.2,0.08-0.31c0.09-0.26,0.25-0.48,0.44-0.68
	c-0.08,0.14-0.15,0.28-0.21,0.43c-0.12,0.28-0.14,0.58-0.15,0.88c-0.02,0.38-0.09,0.75-0.11,1.12c0,0.04,0.01,0.07,0.01,0.1
	c0.01,0.03,0.02,0.07,0.03,0.1c0.02-0.01,0.04-0.01,0.04-0.03c0.15-0.39,0.22-0.8,0.37-1.2c0.03-0.07,0.05-0.13,0.08-0.2
	c-0.04,0.24-0.07,0.48-0.09,0.72c-0.08,0.84,0.13,1.69,0.17,2.53c0.01,0.02,0.01,0.04,0.02,0.06c0.02,0.01,0.05-0.01,0.05-0.03
	c0-0.05,0.01-0.1,0.01-0.15c0.02-0.02,0.03-0.06,0.01-0.12c0.02-0.27,0.06-0.53,0.11-0.79c0,0.21,0,0.42,0,0.62
	c-0.01,0.39,0.02,0.78,0.08,1.16c0.03,0.07,0.06,0.14,0.09,0.21v0c0.03,0.08,0.06,0.15,0.09,0.23c0.01-0.08,0.02-0.15,0.04-0.23
	c0-0.02,0.01-0.03,0.02-0.04c-0.01-0.23-0.02-0.46-0.02-0.69c0-0.14,0.01-0.28,0.03-0.42c0.05,0.21,0.14,0.41,0.26,0.52
	c0.01,0.02,0.04,0.02,0.06,0.02c0.04-0.28,0.1-0.56,0.16-0.85c0-0.38-0.02-0.76,0.01-1.13c0.03-0.39,0.13-0.76,0.21-1.14
	c0.04,0.45,0.15,0.89,0.33,1.3c0.01,0.02,0.02,0.03,0.04,0.03c0.02-0.22,0.06-0.45,0.1-0.66c0-0.37,0-0.74,0.04-1.13
	c0-0.04,0.01-0.09,0.02-0.13c0.01,0.07,0.02,0.14,0.03,0.2c0.02-0.12,0.03-0.23,0.05-0.34c0.03,0.18,0.07,0.34,0.13,0.5
	c-0.01,0.25,0.03,0.49,0.06,0.72c0.02,0,0.04,0.01,0.05,0.05c0.03,0.13,0.05,0.25,0.09,0.37c0,0,0,0.01,0.01,0.01
	c0.02-0.02,0.03-0.04,0.03-0.06c0-0.11-0.02-0.21-0.04-0.32c0-0.27,0.07-0.54,0.17-0.79c-0.02,0.16-0.04,0.31-0.05,0.47
	c-0.02,0.3,0.08,0.59,0.17,0.87c0.12,0.36,0.18,0.73,0.3,1.09c0.01,0.03,0.03,0.06,0.04,0.09c0.02,0.03,0.04,0.06,0.06,0.08
	c0.02-0.01,0.03-0.03,0.03-0.04c0-0.42-0.08-0.83-0.08-1.25c0-0.07,0.01-0.15,0.01-0.22c0.04,0.24,0.11,0.48,0.17,0.7
	c0.11,0.41,0.3,0.8,0.49,1.18c-0.03,0.24-0.05,0.48-0.11,0.72c-0.27,1.17-0.74,2.28-0.95,3.46c-0.05,0.29-0.08,0.58-0.1,0.87l0,0
	c-0.02,0.31-0.05,0.63-0.09,0.94c-0.08,0.58-0.21,1.15-0.36,1.72c-0.15,0.58-0.33,1.16-0.49,1.74c-0.02,0.09-0.05,0.17-0.07,0.26
	c0,0,0.01,0,0.01,0.01c-0.13,0.48-0.27,0.96-0.36,1.46c-0.06,0.29-0.09,0.58-0.14,0.87c-0.42,0.17-0.8,0.48-1.03,0.83
	c0.15-0.5,0.35-0.94,0.72-1.36c0.1-0.11,0.39-0.45,0.01-0.36c-0.38,0.1-0.72,0.43-0.95,0.83c-0.09-0.19-0.2-0.36-0.34-0.5
	c-0.38-0.38-1.02-0.67-1.55-0.42c-0.02,0.01-0.03,0.04,0,0.05c0.04,0.02,0.08,0.03,0.11,0.04c0,0-0.01,0-0.01,0
	c0.06,0.02,0.12,0.04,0.18,0.06c0.09,0.03,0.17,0.06,0.26,0.12c0.25,0.16,0.48,0.4,0.67,0.62c0.17,0.19,0.31,0.39,0.38,0.64
	c0.02,0.07,0.02,0.15,0.03,0.22c-0.01,0.08-0.01,0.15-0.01,0.22c-0.03-0.04-0.07-0.07-0.11-0.11c-0.07-0.15-0.14-0.29-0.25-0.43
	c-0.21-0.24-0.53-0.4-0.82-0.48c-0.52-0.14-1.22-0.06-1.55,0.42c-0.01,0.02,0,0.05,0.02,0.05c0.04,0,0.08-0.01,0.12-0.02
	c0,0-0.01,0-0.01,0.01c0.06-0.01,0.12-0.02,0.18-0.04c0.09-0.02,0.19-0.04,0.3-0.03c0.21,0.01,0.43,0.06,0.64,0.12
	c-0.08,0.02-0.16,0.02-0.23,0.05c-0.15,0.05-0.3,0.14-0.43,0.25c-0.05,0.04-0.08,0.09-0.12,0.13c-0.08,0.08-0.16,0.16-0.23,0.26
	c-0.04,0.06-0.06,0.12-0.09,0.18c-0.05,0.1-0.1,0.19-0.13,0.29c-0.02,0.07-0.03,0.14-0.04,0.21c-0.01,0.07-0.04,0.15-0.04,0.22
	c0.01-0.04,0.02-0.06,0.03-0.09c-0.01,0.08-0.03,0.16-0.02,0.23c0,0.04,0.06,0.04,0.08,0.01c0.26-0.47,0.62-0.78,1.14-0.95
	c0.38-0.13,0.91-0.18,1.28,0.02c0,0,0.01,0.01,0.01,0.01c0,0,0,0,0,0c-0.01,0-0.01-0.01-0.02-0.01c0,0,0,0,0,0
	c-0.29-0.12-0.58-0.17-0.91-0.08c-0.32,0.08-0.62,0.3-0.83,0.55c-0.11,0.13-0.18,0.27-0.24,0.44c-0.02,0.06-0.03,0.13-0.04,0.19
	c-0.03,0.11-0.05,0.21-0.06,0.32c0,0.07,0.01,0.14,0.01,0.22c0.01,0.1,0.01,0.2,0.03,0.3c0.02,0.07,0.05,0.13,0.07,0.2
	c0.03,0.07,0.04,0.14,0.07,0.2c-0.01-0.04-0.01-0.06-0.02-0.09c0.03,0.07,0.05,0.15,0.1,0.21c0.02,0.03,0.08,0.01,0.08-0.03
	c-0.01-0.54,0.15-0.99,0.5-1.39c0.13-0.15,0.3-0.3,0.49-0.42c0,0,0,0,0,0.01c-0.19,0.25-0.36,0.55-0.5,0.83
	c-0.09,0.18-0.35,0.57-0.29,0.79c0.02,0.05,0.06,0.07,0.12,0.06c0,0,0,0-0.01,0.01c0.01,0,0.02-0.01,0.03-0.01
	c0.06-0.01,0.13-0.03,0.22-0.08c0.01-0.01,0.03-0.02,0.04-0.02c0.07-0.04,0.15-0.09,0.22-0.14c0.01-0.01,0.03-0.02,0.04-0.03
	c-0.43,0.57-0.84,1.15-1.36,1.65c-0.21,0.21-0.46,0.42-0.67,0.66v0c-0.06,0.07-0.11,0.15-0.16,0.22c-0.03,0.04-0.07,0.08-0.09,0.13
	c-0.07,0.13-0.12,0.27-0.15,0.42c-0.09,0.57,0.29,1.13,0.65,1.52c0.38,0.41,0.83,0.67,1.38,0.74c0.59,0.08,1.18,0,1.76-0.13
	c0.65-0.14,1.27-0.4,1.93-0.51c0.39-0.07,0.76,0.01,1.14,0.06c0.43,0.05,0.86,0.13,1.29,0.22c0.63,0.14,1.21,0.3,1.86,0.15
	c0.02,0,0.03-0.01,0.05-0.02c-0.03,0.12-0.07,0.23-0.08,0.35c-0.01,0.09,0,0.17,0,0.25c0,0.12,0,0.24,0.02,0.36
	c0.02,0.09,0.05,0.17,0.08,0.25c0.03,0.08,0.04,0.17,0.07,0.24c-0.01-0.04-0.02-0.08-0.02-0.11c0.04,0.08,0.06,0.18,0.1,0.25
	c0.03,0.04,0.09,0.01,0.1-0.03c0.01-0.64,0.22-1.16,0.65-1.62c0.33-0.35,0.86-0.71,1.37-0.71c-0.27,0.3-0.42,0.71-0.49,1.11
	c-0.06,0.37-0.06,0.77-0.06,1.15c0,0.24-0.05,0.79,0.14,0.98c0.05,0.05,0.1,0.03,0.16,0c0,0,0,0.01,0,0.01
	c0.01-0.01,0.03-0.03,0.05-0.04c0.01-0.01,0.03-0.02,0.04-0.03c0.03-0.03,0.07-0.08,0.1-0.13c0.01-0.01,0.01-0.01,0.02-0.02
	c0.04-0.06,0.08-0.13,0.12-0.2c0.01-0.01,0.01-0.02,0.02-0.03c0.03-0.06,0.07-0.12,0.1-0.18c0.01-0.02,0.02-0.04,0.03-0.06
	c0.02-0.05,0.05-0.1,0.07-0.14c0.01-0.03,0.02-0.05,0.03-0.07c0.02-0.04,0.03-0.07,0.04-0.1c0.03-0.07,0.05-0.12,0.07-0.14
	c0.08-0.16,0.14-0.32,0.19-0.48c0.02-0.05,0.03-0.1,0.04-0.15c0.03-0.11,0.07-0.23,0.09-0.34c0.01-0.07,0.02-0.14,0.03-0.21
	c0.01-0.09,0.03-0.19,0.03-0.28c0.01-0.09,0-0.18,0-0.26c0-0.06,0-0.12,0-0.18c0,0,0-0.01-0.01-0.01c0-0.04,0-0.08,0-0.12
	c0.3,0.18,0.58,0.39,0.84,0.62c0.43,0.38,0.65,0.8,0.88,1.31c0.03,0.06,0.07,0.04,0.12,0.01c0,0,0,0.01,0,0.01
	c0.02-0.02,0.04-0.04,0.05-0.06c0.05-0.11,0.07-0.24,0.08-0.36c0,0.01,0,0.02,0,0.03c0-0.01,0-0.02,0-0.04c0-0.05,0-0.11-0.01-0.16
	c-0.01-0.08-0.01-0.16-0.03-0.24c-0.01-0.05-0.02-0.1-0.04-0.15c-0.01-0.02-0.01-0.04-0.02-0.06c0,0.01,0,0.03,0.01,0.04
	c-0.08-0.25-0.2-0.5-0.34-0.69c-0.05-0.07-0.1-0.12-0.16-0.17c-0.01,0-0.01-0.01-0.01-0.01c-0.1-0.08-0.2-0.16-0.32-0.21
	c0.19,0,0.38-0.03,0.57-0.05c0.08,0.12,0.16,0.23,0.25,0.33c0.26,0.28,0.58,0.47,0.97,0.52c0.41,0.06,0.83,0,1.24-0.09
	c0.45-0.1,0.89-0.28,1.35-0.36c0.27-0.05,0.53,0.01,0.8,0.04c0.3,0.04,0.6,0.09,0.9,0.16c0.45,0.1,0.85,0.21,1.3,0.11
	c0.36-0.08,0.69-0.26,0.95-0.52c0.08-0.08,0.15-0.16,0.2-0.25c0.02-0.03,0.03-0.07,0.05-0.1c0.03-0.06,0.05-0.11,0.07-0.17
	c0.01-0.04,0.01-0.08,0.02-0.12c0.01-0.05,0.02-0.11,0.02-0.16c0-0.04,0-0.08-0.01-0.13c0-0.05-0.01-0.1-0.02-0.16
	c-0.01-0.04-0.02-0.09-0.03-0.13c-0.01-0.05-0.03-0.1-0.05-0.15c-0.01-0.04-0.03-0.09-0.05-0.13c-0.02-0.05-0.05-0.1-0.07-0.15
	c-0.02-0.04-0.04-0.08-0.06-0.12c-0.03-0.05-0.06-0.1-0.09-0.15c-0.02-0.03-0.04-0.07-0.07-0.1c-0.01-0.01-0.02-0.03-0.02-0.04
	c0,0,0,0,0,0.01c-0.05-0.06-0.09-0.13-0.14-0.19c0,0-0.01,0-0.01-0.01c-0.14-0.27-0.34-0.48-0.62-0.66
	c-0.37-0.25-0.8-0.42-1.22-0.59c-0.04-0.39-0.16-0.78-0.33-1.16c0.01-0.04,0.01-0.08,0.02-0.12c0.01-0.07,0.02-0.13,0.03-0.2
	c0.01-0.05,0.01-0.1,0.02-0.15c0.01-0.08,0.02-0.16,0.03-0.24c0.01-0.06,0.01-0.11,0.02-0.17c0.01-0.07,0.02-0.14,0.03-0.22
	c0.01-0.07,0.02-0.15,0.02-0.22c0-0.02,0-0.04,0.01-0.07c0-0.02,0-0.04,0-0.06c0.01-0.1,0.02-0.2,0.03-0.3
	c0.01-0.11,0.02-0.22,0.03-0.32c0.01-0.11,0.02-0.22,0.03-0.33c0.01-0.09,0.01-0.19,0.02-0.28c0.01-0.13,0.02-0.26,0.02-0.38
	c0-0.08,0.01-0.15,0.01-0.23c0.01-0.14,0.01-0.28,0.02-0.41c0-0.06,0.01-0.13,0.01-0.19c0.01-0.16,0.01-0.32,0.02-0.48
	c0-0.03,0-0.06,0-0.09c0.01-0.19,0.01-0.38,0.02-0.55c0.05-2.42-0.02-4.73-0.16-6.96c-0.03-0.42-0.04-0.84-0.06-1.27
	c-0.06-1.25-0.1-2.52-0.12-3.8c0-0.06,0-0.12,0-0.18c-0.03-1.37-0.04-2.75-0.06-4.14c0,0,0,0,0,0c0-0.05,0-0.1,0-0.16
	c0.1-0.46,0.03-0.98,0-1.43c-0.01-0.12-0.02-0.23-0.03-0.35c0-0.04,0-0.09,0-0.13c0.02,0.03,0.04,0.07,0.05,0.1
	c0.14,0.27,0.3,0.54,0.39,0.83c0.03,0.11,0.06,0.19,0.15,0.28c0.04,0.03,0.1,0.04,0.13,0c0.04-0.05,0.05-0.09,0.05-0.14
	c0.03,0.21,0.06,0.43,0.08,0.62c0.01,0.12,0.02,0.25,0.02,0.39c0.04,0.22,0.06,0.44,0.08,0.67c0.03,0.28,0.07,0.55,0.08,0.82
	c0.07-0.13,0.08-0.32,0.1-0.45c0.02-0.19,0.06-0.39,0.09-0.58c0.01,0.19,0.01,0.38,0.01,0.56c0,0.29,0.01,0.61-0.07,0.89
	c0,0.01-0.01,0.01-0.01,0.02c0,0.01,0,0.03,0,0.04c0,0.01,0.01,0.02,0.01,0.03c0.07-0.13,0.12-0.27,0.17-0.41
	c0.02-0.07,0.03-0.14,0.05-0.21c0-0.05,0-0.09-0.01-0.14c0.04-0.32,0.05-0.65,0.04-0.97c0-0.09-0.01-0.18-0.01-0.27
	c-0.02-0.26-0.05-0.51-0.09-0.76c-0.01-0.07-0.02-0.14-0.04-0.21c-0.06-0.26-0.13-0.53-0.22-0.78c0,0-0.01,0-0.01,0
	c-0.18-0.53-0.43-1.04-0.74-1.52c0.04,0.05,0.08,0.1,0.11,0.15c-0.08-0.13-0.17-0.25-0.26-0.37c0.11,0.08,0.22,0.16,0.33,0.24
	c0.24,0.1,0.48,0.2,0.71,0.31c0.01-0.01,0.02-0.03,0.02-0.05c-0.02-0.16-0.13-0.32-0.25-0.48c0.11,0.06,0.22,0.13,0.33,0.2
	c0.17,0.11,0.33,0.24,0.5,0.37c0.01,0,0.03,0,0.04,0.01c0.06,0.03,0.13,0.06,0.19,0.09c-0.08-0.13-0.15-0.25-0.23-0.37
	c-0.26-0.24-0.53-0.47-0.82-0.66c-0.15-0.1-0.3-0.21-0.46-0.32c0.22,0.1,0.43,0.2,0.64,0.33c0.03,0.04,0.06,0.06,0.09,0.05
	c0.04,0.02,0.08,0.05,0.12,0.07c0.02,0.01,0.05-0.01,0.05-0.03c-0.01-0.01-0.02-0.03-0.03-0.04c-0.51-0.4-0.97-0.89-1.5-1.26
	c0-0.08-0.01-0.17-0.01-0.25c0.14,0.05,0.27,0.1,0.42,0.13c0.01,0,0.03-0.01,0.04-0.02c-0.02-0.02-0.04-0.05-0.06-0.07
	c-0.02-0.02-0.05-0.04-0.07-0.06c-0.11-0.07-0.22-0.13-0.34-0.19c0-0.06-0.01-0.11-0.01-0.17c0,0,0,0,0,0
	c-0.01-0.25-0.03-0.5-0.05-0.75c-0.03-0.49-0.06-0.99-0.1-1.47c-0.04-0.52-0.09-1.04-0.14-1.55c0.26,0.13,0.51,0.26,0.75,0.42
	c0.05,0.04,0.16-0.01,0.13-0.07c-0.02-0.04-0.04-0.08-0.07-0.12c0.17,0.12,0.33,0.26,0.49,0.4c0.05,0.04,0.13,0.02,0.14-0.03
	c0.03-0.09,0.02-0.17-0.02-0.25c0.1,0.09,0.2,0.18,0.29,0.27c0.24,0.23,0.46,0.46,0.67,0.7c0.16,0.09,0.32,0.19,0.48,0.3
	c0.1-0.21,0.06-0.43-0.06-0.66c0,0,0.01,0.01,0.01,0.01c0.19,0.22,0.39,0.43,0.56,0.66c0.08,0.06,0.16,0.12,0.24,0.18
	c0.01-0.01,0.02-0.02,0.03-0.03c0.15-0.24,0.09-0.52-0.01-0.8c0.11,0.14,0.21,0.28,0.32,0.42c0.08,0.1,0.16,0.2,0.23,0.3
	c0.17,0.06,0.33,0.23,0.46,0.36c0.12-0.18,0.08-0.38-0.02-0.59c0.04,0.05,0.08,0.09,0.12,0.14c0.31,0.34,0.69,0.63,1.04,0.95
	c0.2,0.13,0.38,0.29,0.55,0.45c-0.02-0.07-0.05-0.14-0.08-0.2c-0.01-0.01-0.02-0.02-0.03-0.03c-0.13-0.3-0.29-0.6-0.51-0.87
	c-0.04-0.05,0-0.13,0.07-0.09c0.43,0.27,0.78,0.65,1,1.07c-0.02-0.09-0.05-0.17-0.07-0.24c-0.02-0.08-0.06-0.16-0.1-0.23
	c0.02,0.01,0.04,0.02,0.05,0.03c-0.1-0.21-0.24-0.42-0.39-0.61c0.33,0.18,0.65,0.45,0.99,0.56c0.03,0.01,0.08-0.02,0.05-0.05
	c-0.1-0.1-0.22-0.19-0.34-0.28c-0.16-0.13-0.3-0.27-0.47-0.38c-0.31-0.22-0.63-0.4-0.97-0.58c-0.03-0.02-0.06-0.03-0.09-0.05
	c-0.03-0.02-0.05-0.04-0.08-0.06c0.27,0.11,0.53,0.23,0.79,0.36c0.22,0.11,0.42,0.23,0.62,0.36c0.01,0.01,0.02,0.01,0.03,0.02
	c-0.14-0.2-0.29-0.39-0.45-0.56c-0.39-0.28-0.79-0.54-1.22-0.77c-0.01,0-0.01-0.01-0.02-0.01c-0.04-0.04-0.09-0.09-0.14-0.13
	c-0.23-0.14-0.46-0.27-0.7-0.39c0.25,0.08,0.51,0.18,0.75,0.29c0.05,0.02,0.16-0.02,0.1-0.07c-0.45-0.38-1.09-0.69-1.65-0.93
	c-0.49-0.21-0.98-0.33-1.48-0.45c0.03,0,0.05-0.01,0.08-0.01c0.15,0.01,0.3,0.03,0.45,0.05c0.35,0.04,0.7,0.13,1.04,0.23
	c-0.31-0.18-0.63-0.34-0.95-0.5c-0.11-0.03-0.22-0.05-0.34-0.08c-0.44-0.1-0.88-0.16-1.32-0.2c-0.16-0.01-0.32-0.01-0.48,0
	c-0.01-0.02,0-0.04,0.03-0.05c0.28-0.1,0.6-0.13,0.93-0.12c0.01,0,0.02-0.01,0.02-0.02c-0.04-0.01-0.08-0.03-0.12-0.04
	c-0.19-0.04-0.38-0.07-0.57-0.1c-0.22-0.03-0.47-0.07-0.72-0.09c0.14-0.03,0.29-0.05,0.43-0.05c0.02,0,0.03,0,0.05,0.01
	c-0.25-0.06-0.51-0.12-0.76-0.16c-0.01,0-0.01,0-0.02,0c-0.23-2.45-0.4-4.98-0.42-7.7c0-0.13,0-0.26,0-0.39c0,0,0,0,0,0
	c-0.02-2.2-0.04-4.39-0.12-6.54c-0.02-0.64-0.06-1.26-0.09-1.88c0,0,0.01-0.01,0.01-0.01c-0.01-0.3-0.04-0.61-0.05-0.91
	c-0.03-0.53-0.06-1.05-0.09-1.58c0.18-0.5,0.33-1.01,0.43-1.52c0.05-0.29,0.12-0.58,0.18-0.88c0,0.38-0.01,0.75-0.06,1.14
	c-0.04,0.07-0.05,0.13-0.02,0.17c-0.01,0.07-0.02,0.14-0.03,0.22c0,0.04,0.04,0.06,0.08,0.05c0.02-0.03,0.03-0.05,0.05-0.08
	c0.31-1.19,0.9-2.37,1.03-3.58c0.03-0.34,0.07-0.69,0.07-1.03c0.03,0.1,0.06,0.2,0.08,0.3c0.13,0.58,0.11,1.17,0.23,1.75
	c0,0.02,0.03,0.04,0.06,0.05c0.02-0.04,0.05-0.09,0.07-0.13c0.02-0.05,0.03-0.1,0.04-0.15c0.08-0.53,0.07-1.07,0.16-1.61
	c0.07-0.42,0.13-0.86,0.02-1.27c-0.06-0.22-0.14-0.43-0.22-0.63c0.24,0.31,0.43,0.65,0.51,1.03c0,0.15,0.01,0.3,0.04,0.45
	c0,0.03,0.03,0.05,0.06,0.07c0-0.01,0-0.01,0-0.02c0.02-0.18,0.02-0.37,0.04-0.55c0-0.05,0.03-0.07,0.07-0.08
	c-0.01-0.28-0.03-0.57-0.08-0.85c0.04,0.11,0.09,0.23,0.11,0.35c0.19-0.43,0.24-0.96,0.21-1.47c0.07,0.23,0.14,0.45,0.2,0.66
	c0.15,0.54,0.23,1.06,0.31,1.6c0.12,0.3,0.23,0.6,0.3,0.91c0.02-0.01,0.04-0.03,0.05-0.06c0.19-0.66,0.28-1.34,0.24-2
	c0.21,0.51,0.44,1,0.58,1.54c0.13,0.51,0.17,1.07,0.25,1.61c0.16,0.38,0.31,0.76,0.44,1.14c0.03-0.01,0.07-0.02,0.09-0.05
	c0.16-0.22,0.25-0.53,0.29-0.85c0.05,0.19,0.1,0.39,0.14,0.59c0.06,0.33,0.09,0.66,0.12,1c0.02,0.01,0.03,0.03,0.04,0.05
	c0.04,0.1,0.08,0.2,0.11,0.31c0.07-0.24,0.13-0.47,0.19-0.71c0-0.57-0.04-1.14-0.13-1.69c-0.05-0.29-0.09-0.59-0.14-0.89
	c0.13,0.35,0.25,0.71,0.34,1.09c-0.02,0.09,0,0.14,0.04,0.16c0.01,0.07,0.03,0.14,0.05,0.21c0.01,0.03,0.06,0.04,0.09,0.02
	c0.01-0.03,0.01-0.06,0.02-0.09c-0.12-1.22,0.03-2.53-0.27-3.7c-0.08-0.33-0.17-0.67-0.29-0.99c0.06,0.08,0.12,0.17,0.18,0.25
	c0.32,0.5,0.51,1.07,0.83,1.57c0.01,0.02,0.04,0.02,0.07,0.02c0.01-0.05,0.02-0.1,0.02-0.15c0-0.05-0.01-0.1-0.01-0.15
	c-0.11-0.53-0.3-1.03-0.41-1.56c-0.08-0.42-0.17-0.85-0.42-1.2c-0.13-0.18-0.28-0.36-0.42-0.52c0.34,0.21,0.63,0.47,0.83,0.8
	c0.06,0.14,0.11,0.28,0.19,0.41c0.02,0.03,0.05,0.04,0.08,0.04c0-0.01,0-0.01,0-0.02c-0.05-0.18-0.11-0.35-0.15-0.53
	c-0.01-0.05,0-0.08,0.03-0.1c-0.14-0.33-0.27-0.65-0.48-0.96c-0.29-0.42-0.59-0.79-0.98-1.12c-0.38-0.33-0.77-0.64-1.17-0.92
	c0.48,0.21,0.94,0.45,1.35,0.75c0.39,0.29,0.64,0.65,0.96,0.99c-0.15-0.44-0.32-0.87-0.53-1.29c-0.01-0.01-0.01-0.03-0.01-0.04
	c-0.42-0.43-0.92-0.82-1.34-1.19c-0.14-0.13-0.31-0.26-0.5-0.4c0.24,0.11,0.48,0.23,0.7,0.37c0.22,0.2,0.44,0.4,0.68,0.57
	c0.08,0.06,0.27-0.03,0.19-0.13c-0.18-0.21-0.4-0.4-0.65-0.56c-0.45-0.44-0.86-0.91-1.38-1.27c0-0.02,0.01-0.03,0.01-0.05
	c0.2,0.08,0.39,0.16,0.58,0.25c-0.16-0.16-0.31-0.32-0.45-0.5c-0.01-0.01-0.01-0.02-0.02-0.02c-0.02-0.01-0.03-0.02-0.04-0.03
	c0.13-0.63,0.21-1.29,0.24-1.93c0.03,0.01,0.06,0.02,0.09,0.03c-0.03-0.03-0.06-0.05-0.09-0.08c0.01-0.11,0.01-0.22,0.01-0.33
	c0.13,0.06,0.27,0.13,0.4,0.19c0.03,0.11,0.06,0.22,0.08,0.34c0.01,0.06,0.03,0.12,0.04,0.18c0.15,0.39,0.29,0.78,0.43,1.17
	c0.21,0.2,0.29,0.67,0.35,0.88c0.01,0.05,0.02,0.1,0.04,0.15c0.01,0.04,0.03,0.08,0.05,0.12c0,0,0,0,0,0
	c-0.12-0.76,0.08-1.46,0.13-2.21c0.01-0.21,0-0.41-0.02-0.6c0.13,0.07,0.26,0.14,0.39,0.21c0.15,0.05,0.31,0.1,0.46,0.15
	c0.04,0.08,0.08,0.15,0.11,0.23c0.43,0.61,0.74,1.29,0.97,1.99c0.01-0.01,0.02-0.03,0.02-0.04c0.06-0.75-0.1-1.48-0.32-2.2
	c0.25,0.12,0.5,0.25,0.77,0.32c0.01-0.02,0.01-0.05-0.01-0.07c-0.28-0.41-0.68-0.72-1.03-1.07c-0.01-0.02-0.01-0.04-0.02-0.06
	c0.58,0.33,1.15,0.71,1.72,1.07c0.09,0.03,0.18,0.06,0.26,0.09c0.2,0.53,0.32,1.09,0.46,1.64c0.1,0.4,0.32,0.81,0.39,1.22
	c0.01-0.01,0.02-0.02,0.02-0.03c0.17-0.47,0.08-1.13,0.08-1.63c0-0.16,0-0.31-0.01-0.46c0.1,0.33,0.2,0.66,0.28,1
	c0.11,0.47,0.26,0.97,0.32,1.45c0.11,0.33,0.22,0.65,0.32,0.98c0.06,0.02,0.14,0.02,0.16-0.05c0.3-0.83,0.21-1.93,0.05-2.81
	c0.04,0.09,0.07,0.17,0.1,0.26c0.09,0.24,0.17,0.48,0.24,0.73c0.03,0,0.06,0.01,0.08,0.05c0.25,0.49,0.45,1,0.62,1.51
	c0.01-0.01,0.03-0.01,0.03-0.02c0.18-0.27,0.05-0.45,0.02-0.75c-0.06-0.54-0.15-1.09-0.28-1.62c-0.06-0.24-0.12-0.48-0.19-0.72
	c0.17,0.31,0.32,0.62,0.44,0.95c0.24,0.63,0.47,1.27,0.69,1.91c0.02,0.07,0.04,0.14,0.07,0.2c0.12,0.23,0.24,0.46,0.36,0.69
	c0.11,0.21,0.23,0.41,0.34,0.62c0,0,0.01-0.01,0.01-0.02c0.22-0.81-0.06-1.77-0.21-2.56c-0.05-0.26-0.1-0.51-0.16-0.76
	c0.04,0.06,0.08,0.12,0.12,0.17c0.26,0.39,0.57,0.79,0.75,1.23c0.07,0.17,0.12,0.29,0.27,0.4c0.06,0.05,0.16,0.05,0.2-0.02
	c0.05-0.08,0.06-0.15,0.05-0.22c0.09,0.32,0.17,0.65,0.23,0.95c0.04,0.19,0.07,0.39,0.1,0.6c0.1,0.33,0.17,0.67,0.24,1.02
	c0.09,0.42,0.2,0.84,0.27,1.26c0.09-0.22,0.08-0.51,0.08-0.72c0-0.31,0.03-0.61,0.05-0.92c0.05,0.29,0.07,0.59,0.1,0.86
	c0.05,0.45,0.12,0.94,0.05,1.39c0,0.01-0.01,0.02-0.01,0.03c0,0.02,0,0.04,0.01,0.06c0.01,0.02,0.01,0.03,0.02,0.04
	c0.08-0.21,0.14-0.44,0.2-0.67c0.02-0.11,0.03-0.23,0.04-0.34c-0.01-0.07-0.02-0.14-0.03-0.21c0.01-0.36-0.01-0.72-0.04-1.07
	c-0.01-0.09-0.02-0.19-0.03-0.28c-0.03-0.29-0.08-0.58-0.14-0.86c-0.01-0.07-0.03-0.14-0.04-0.21c-0.08-0.34-0.18-0.68-0.29-1.02
	c-0.02-0.07-0.05-0.13-0.07-0.2c-0.1-0.28-0.21-0.55-0.33-0.82c-0.02-0.04-0.03-0.09-0.05-0.13c0,0,0,0-0.01,0
	c-0.34-0.73-0.77-1.42-1.26-2.07c0.01,0.02,0.03,0.03,0.05,0.05c-0.02-0.03-0.05-0.06-0.07-0.09c-0.11-0.14-0.22-0.28-0.33-0.42
	c0.16,0.1,0.33,0.19,0.5,0.28c0.39,0.11,0.78,0.23,1.16,0.36c0.02-0.03,0.03-0.06,0.02-0.09c-0.06-0.24-0.25-0.48-0.47-0.69
	c0.18,0.08,0.36,0.16,0.55,0.25c0.29,0.15,0.56,0.32,0.84,0.49c0.02-0.01,0.04-0.01,0.06,0c0.1,0.03,0.21,0.07,0.31,0.1
	c-0.14-0.18-0.28-0.36-0.43-0.54c-0.44-0.33-0.9-0.63-1.39-0.89c-0.25-0.13-0.51-0.28-0.77-0.42c0.36,0.11,0.71,0.25,1.05,0.4
	c0.05,0.06,0.1,0.08,0.15,0.07c0.07,0.03,0.13,0.06,0.2,0.09c0.03,0.01,0.07-0.02,0.07-0.05c-0.02-0.02-0.04-0.04-0.05-0.06
	c-1.01-0.62-1.93-1.48-3.02-1.96c-0.3-0.13-0.62-0.27-0.95-0.38c0.1,0.01,0.21,0.01,0.31,0.03c0.59,0.07,1.14,0.27,1.73,0.34
	c0.02,0,0.05-0.01,0.06-0.04c-0.03-0.03-0.07-0.07-0.1-0.1c-0.04-0.03-0.08-0.05-0.12-0.08c-0.48-0.23-0.99-0.39-1.46-0.62
	c-0.38-0.19-0.76-0.38-1.19-0.41c-0.22-0.01-0.45-0.02-0.67-0.01c0.38-0.11,0.76-0.16,1.14-0.11c0.14,0.04,0.29,0.08,0.44,0.11
	c0.03,0,0.06-0.01,0.08-0.03c-0.01,0-0.01-0.01-0.02-0.01c-0.17-0.07-0.34-0.13-0.5-0.2c-0.04-0.02-0.06-0.05-0.05-0.08
	c-0.34-0.09-0.67-0.19-1.04-0.22c-0.5-0.04-0.98-0.05-1.49,0.02c-0.49,0.07-0.97,0.16-1.45,0.27c0.46-0.21,0.94-0.39,1.43-0.49
	c0.47-0.1,0.91-0.06,1.37-0.09c-0.43-0.15-0.87-0.28-1.32-0.39c-0.02,0-0.02-0.01-0.03-0.01c-0.6,0.04-1.22,0.16-1.76,0.23
	c-0.19,0.02-0.4,0.06-0.62,0.11c0.24-0.1,0.48-0.19,0.73-0.26c0.29-0.03,0.59-0.07,0.87-0.14c0.1-0.02,0.15-0.2,0.02-0.2
	c-0.27,0-0.56,0.05-0.85,0.12c-0.7,0.06-1.4,0.05-2.08,0.26c0,0,0,0,0,0c0.24-0.13,0.5-0.24,0.76-0.35
	c-0.22,0.02-0.45,0.03-0.67,0.02c-0.01,0-0.02,0-0.03,0c-0.1,0.03-0.19,0.06-0.29,0.07c-0.43,0.08-0.9,0.11-1.3,0.32
	c-0.22,0.11-0.44,0.24-0.64,0.39c0.24-0.33,0.52-0.61,0.93-0.76c0.03-0.01,0.06-0.04,0.07-0.07c-0.15,0-0.3,0.01-0.45,0.02
	c-0.02,0-0.04,0-0.06,0.01c-0.5,0.15-1.01,0.33-1.4,0.68c-0.07,0.06-0.13,0.13-0.19,0.2c0.22-0.3,0.49-0.57,0.84-0.77
	c0,0,0.01-0.01,0.01-0.01c-0.15,0.02-0.31,0.05-0.46,0.08c0.17-0.09,0.33-0.19,0.5-0.27c-0.21-0.04-0.42-0.06-0.64-0.05
	c-0.32,0.02-0.61,0.11-0.93,0.11c0.85-0.39,1.88-0.55,2.9-0.58c0.04-0.01,0.08-0.03,0.12-0.04c0.36-0.1,0.73-0.19,1.1-0.27
	c-0.38-0.14-0.78-0.26-1.18-0.36c-0.3-0.07-0.61-0.1-0.92-0.13c-0.19-0.02-1.32-0.05-0.18-0.17c1.02-0.1,2.18-0.12,3.26,0.06
	c0.33-0.09,0.71-0.13,1.03-0.18c-0.25-0.23-0.71-0.39-0.98-0.51c-0.14-0.06-0.3-0.13-0.48-0.2c0.65,0.04,1.3,0.11,1.92,0.31
	c0.27,0.02,0.53,0.03,0.8,0.04c-0.15-0.32-0.69-0.53-1.02-0.67c-0.54-0.23-1.11-0.44-1.68-0.61c-0.07-0.03-0.13-0.06-0.2-0.08
	c1.57-0.16,3.29,0.16,4.83,0.63c0.24,0.02,0.48,0.05,0.72,0.07c0.01-0.02,0-0.05-0.04-0.08c-0.31-0.23-0.61-0.43-0.96-0.61
	c-0.05-0.03-0.11-0.05-0.17-0.08c0.24,0.06,0.48,0.11,0.72,0.17c0.01,0,0.02,0,0.04,0c0.33,0.04,0.65,0.08,0.98,0.14
	c0.01-0.01,0.01-0.03,0.01-0.05c-0.15-0.67-1.32-1.03-2.12-1.34c0.54,0.11,1.13,0.35,1.56,0.49c0.65,0.21,1.29,0.44,1.89,0.76
	c0.09,0.05,0.24-0.05,0.19-0.13c-0.04-0.06-0.09-0.12-0.13-0.18c0.28,0.16,0.56,0.35,0.83,0.54c0.08,0.06,0.2,0.01,0.22-0.07
	c0.03-0.14,0-0.27-0.07-0.39c0.17,0.13,0.34,0.25,0.51,0.38c0.41,0.31,0.79,0.64,1.15,0.97c0.27,0.12,0.53,0.25,0.79,0.38
	c0.13-0.34,0.01-0.68-0.2-1.02c0.01,0.01,0.01,0.01,0.02,0.02c0.33,0.31,0.68,0.6,0.98,0.93c0.14,0.08,0.27,0.16,0.41,0.24
	c0.02-0.01,0.03-0.03,0.04-0.04c0.19-0.4,0.06-0.83-0.14-1.24c0.19,0.2,0.38,0.4,0.58,0.6c0.14,0.14,0.29,0.28,0.42,0.43
	c0.27,0.07,0.56,0.29,0.77,0.48c0.15-0.3,0.05-0.61-0.13-0.91c0.07,0.06,0.14,0.13,0.21,0.19c0.54,0.48,1.19,0.86,1.78,1.29
	c0.33,0.17,0.64,0.38,0.94,0.61c-0.05-0.1-0.1-0.2-0.16-0.3c-0.01-0.02-0.03-0.03-0.04-0.05c-0.25-0.45-0.55-0.88-0.94-1.26
	c-0.07-0.07-0.02-0.21,0.1-0.15c0.71,0.34,1.33,0.88,1.74,1.49c-0.05-0.14-0.11-0.26-0.15-0.36c-0.05-0.12-0.12-0.23-0.19-0.35
	c0.03,0.02,0.06,0.03,0.09,0.04c-0.19-0.31-0.44-0.61-0.72-0.88c0.55,0.22,1.08,0.58,1.63,0.7c0.05,0.01,0.12-0.04,0.07-0.08
	c-0.18-0.14-0.38-0.26-0.58-0.38c-0.26-0.17-0.52-0.36-0.79-0.52c-0.51-0.29-1.05-0.51-1.6-0.73c-0.05-0.02-0.1-0.04-0.15-0.06
	c-0.04-0.03-0.09-0.05-0.13-0.08c0.43,0.12,0.86,0.27,1.28,0.42c0.36,0.13,0.7,0.29,1.03,0.46c0.02,0.01,0.04,0.02,0.05,0.03
	c-0.25-0.28-0.52-0.55-0.8-0.8c-0.65-0.38-1.32-0.71-2.03-0.99c-0.01,0-0.02-0.01-0.03-0.01c-0.08-0.06-0.15-0.12-0.23-0.18
	c-0.38-0.18-0.76-0.34-1.15-0.49c0.41,0.08,0.82,0.19,1.21,0.32c0.08,0.03,0.24-0.06,0.14-0.13c-0.77-0.51-1.82-0.88-2.72-1.16
	c-0.8-0.25-1.57-0.35-2.38-0.45c0.04-0.01,0.08-0.03,0.12-0.04c0.24-0.01,0.48-0.01,0.71-0.01c0.55,0.01,1.11,0.08,1.66,0.18
	c-0.52-0.23-1.04-0.43-1.56-0.61c-0.18-0.02-0.36-0.05-0.54-0.07c-0.7-0.08-1.39-0.11-2.08-0.08c-0.25,0.01-0.5,0.04-0.74,0.08
	c-0.01-0.03-0.01-0.07,0.03-0.09c0.41-0.2,0.9-0.3,1.42-0.34c0.01-0.01,0.02-0.02,0.03-0.03c-0.07-0.01-0.13-0.03-0.19-0.04
	c-0.3-0.03-0.59-0.05-0.89-0.05c-0.36-0.01-0.74-0.02-1.14-0.02c0.22-0.07,0.44-0.12,0.66-0.15c0.02,0,0.05,0,0.07,0
	c-0.4-0.05-0.81-0.09-1.21-0.11c-0.49,0.08-0.97,0.2-1.44,0.32c-0.4,0.11-0.77,0.29-1.11,0.49c-0.1,0.06-0.22,0.11-0.33,0.17
	c-0.01-0.03-0.01-0.06,0.01-0.08c0.01,0,0.01-0.01,0.02-0.02v0c0.01,0,0.01-0.01,0.01-0.01c0.15-0.13,0.32-0.24,0.5-0.34
	c0.31-0.2,0.66-0.39,1.01-0.55c-1.08,0.09-2.21,0.49-3.08,0.93c-0.17,0.09-0.33,0.17-0.5,0.27c-0.14,0.05-0.27,0.1-0.4,0.15
	c0.5-0.34,1.01-0.67,1.58-0.93c0.23-0.1,0.52-0.19,0.78-0.29c-0.3,0.04-0.6,0.09-0.9,0.15c-0.07,0.03-0.14,0.05-0.21,0.09
	c-0.23,0.11-0.45,0.22-0.67,0.35c0-0.01-0.02-0.03-0.04-0.03c0.13-0.08,0.25-0.16,0.34-0.25c-0.22,0.07-0.45,0.13-0.67,0.21
	c-0.38,0.18-0.77,0.36-1.13,0.57c-0.38,0.22-0.72,0.49-1.05,0.76c-0.41,0.16-0.8,0.38-1.16,0.61c0.08-0.07,0.15-0.13,0.24-0.2
	c0.39-0.29,0.82-0.55,1.2-0.85c0.03-0.02-0.01-0.05-0.04-0.03c-1.08,0.55-1.92,1.24-2.7,2.07c-0.07,0.08-0.14,0.15-0.21,0.23
	c-0.4,0.3-0.78,0.62-1.13,0.96c0.29-0.37,0.6-0.73,0.91-1.09c0.02-0.03,0.02-0.05,0-0.07c-0.28,0.25-0.6,0.47-0.9,0.71
	c-0.38,0.42-0.71,0.87-1.03,1.32c0-0.12,0.01-0.23,0.01-0.34c-0.07,0.11-0.13,0.21-0.21,0.31c0.06-0.12,0.11-0.25,0.16-0.38
	c0.01-0.01,0.02-0.03,0.02-0.04c0.01-0.03,0.02-0.05,0.02-0.08c0.01-0.26,0.01-0.46,0.01-0.48c0-0.08,0-0.16,0-0.24
	c-0.18,0.2-0.37,0.42-0.58,0.64c0.22-0.28,0.44-0.57,0.58-0.89c-0.01-0.23-0.01-0.47-0.02-0.7c0,0,0,0,0,0.01
	c-0.16,0.48-0.41,0.86-0.72,1.2c0.07-0.09,0.13-0.17,0.19-0.27c0.32-0.55,0.41-1.22,0.46-1.87c0-0.02,0-0.05-0.01-0.07
	c-0.02-0.19-0.05-0.37-0.09-0.56c-0.04,0.02-0.07,0.06-0.07,0.1c-0.07,0.54-0.34,0.94-0.68,1.3c0.12-0.29,0.22-0.58,0.3-0.88
	c0.15-0.54,0.07-1.12,0.05-1.67c0-0.12,0-0.25,0.01-0.37c0-0.01-0.01-0.02-0.01-0.03c-0.07-0.28-0.11-0.55-0.15-0.83
	c-0.06,0.34-0.13,0.68-0.22,1.01c0,0,0,0,0-0.01c0.08-0.87-0.12-1.75-0.23-2.62c0.02-0.37,0-0.73-0.07-1.07
	c-0.04-0.16-0.24-0.06-0.24,0.07c0,0.36,0.02,0.73,0.06,1.1c-0.02,0.32-0.07,0.64-0.13,0.95c0-0.28-0.01-0.55-0.03-0.79
	c-0.05-0.69-0.07-1.47-0.19-2.22c-0.01-0.01-0.02-0.02-0.03-0.04c-0.24-0.54-0.52-1.06-0.82-1.56c0.09,0.57,0.25,1.11,0.25,1.7
	c0,0.63-0.09,1.25-0.22,1.87c0.02-0.61-0.01-1.22-0.05-1.84c-0.04-0.64-0.18-1.23-0.36-1.84c-0.14-0.45-0.34-0.84-0.55-1.24
	c-0.04,0.01-0.08,0-0.11-0.05c-0.13-0.19-0.24-0.39-0.37-0.58c0-0.01-0.01-0.01-0.02-0.02c-0.02,0.03-0.03,0.07-0.01,0.11
	c0.07,0.18,0.15,0.34,0.24,0.51c0.16,0.46,0.2,0.94,0.17,1.43c-0.05-0.28-0.11-0.55-0.19-0.83c-0.15-0.52-0.48-0.96-0.8-1.38
	c-0.41-0.54-0.74-1.14-1.14-1.68c-0.04-0.04-0.09-0.09-0.13-0.13c-0.05-0.04-0.1-0.07-0.15-0.11c-0.02,0.03-0.04,0.06-0.03,0.09
	c0.24,0.71,0.63,1.35,0.87,2.06c0.04,0.12,0.08,0.25,0.11,0.37c-0.22-0.38-0.47-0.75-0.71-1.1c-0.86-1.25-2.15-2.21-3.17-3.33
	c-0.03-0.02-0.06-0.04-0.09-0.06c-0.04,0.01-0.07,0.07-0.04,0.1c0.06,0.07,0.11,0.15,0.16,0.22c0,0.06,0.04,0.12,0.12,0.17
	c0.28,0.39,0.53,0.8,0.76,1.22c-0.24-0.29-0.49-0.58-0.71-0.87c-0.44-0.55-0.93-1.05-1.45-1.53c-0.12-0.07-0.25-0.14-0.37-0.2
	c0,0,0,0,0,0c-0.13-0.07-0.26-0.14-0.4-0.22c0.07,0.12,0.14,0.24,0.21,0.36c0.02,0.03,0.02,0.06,0.02,0.08
	c0.28,0.31,0.57,0.61,0.82,0.94c0.16,0.2,0.31,0.41,0.45,0.62c-0.32-0.23-0.66-0.41-0.97-0.44c-0.04,0-0.07,0.02-0.1,0.04
	c0.27,0.44,0.51,0.9,0.75,1.35c0.43,0.53,0.91,1.03,1.29,1.57c0.4,0.57,0.7,1.2,1.01,1.81c-0.57-0.58-1.25-1.07-1.97-1.44
	c-0.03-0.01-0.06-0.01-0.08,0C23.81,6.22,24,6.57,24.2,6.93c0.44,0.52,0.85,1.03,1.24,1.61c0.16,0.24,0.31,0.48,0.47,0.74
	c-0.45-0.45-0.96-0.85-1.48-1.03c0.2,0.28,0.36,0.61,0.52,0.9c0.02,0.02,0.02,0.05,0.01,0.08c0.28,0.28,0.55,0.57,0.79,0.89
	c0.23,0.32,0.46,0.64,0.68,0.96c-0.63-0.5-1.39-0.91-1.98-1.38c-0.05-0.04-0.1-0.02-0.13,0.01c0.11,0.19,0.23,0.38,0.34,0.57
	c0.62,0.67,1.27,1.32,1.85,2.02c-0.59-0.38-1.11-0.89-1.74-1.18c-0.03-0.02-0.06-0.01-0.09,0c0.22,0.42,0.53,0.8,0.82,1.18
	c0.02,0.02,0.02,0.05,0.02,0.08c0.26,0.26,0.54,0.52,0.8,0.78c0.19,0.18,0.35,0.38,0.51,0.59c-0.05-0.03-0.09-0.05-0.14-0.07
	c-0.49-0.26-0.89-0.56-1.28-0.95c-0.03-0.03-0.06-0.03-0.08-0.01c0.16,0.25,0.29,0.52,0.45,0.78c0.52,0.64,1.03,1.28,1.56,1.91
	c0.01,0.01,0.02,0.02,0.03,0.04c-0.59-0.26-1.09-0.67-1.45-1.21c-0.03-0.04-0.07-0.03-0.1,0.01c0.19,0.33,0.37,0.66,0.61,0.97
	c0.01,0.02,0.02,0.04,0.03,0.07c0.29,0.39,0.58,0.78,0.88,1.17c0.13,0.16,0.26,0.31,0.39,0.46c-0.13-0.09-0.27-0.19-0.41-0.31
	c-0.36-0.29-0.63-0.66-1.04-0.89c0.35,0.79,0.79,1.5,1.36,2.16c0.19,0.17,0.4,0.33,0.62,0.47c0.23,0.32,0.47,0.64,0.75,0.94
	c-0.2-0.05-0.39-0.1-0.59-0.17c-0.1-0.1-0.2-0.2-0.3-0.3c-1.8-1.72-3.91-3.51-6.44-4.41c-0.57-0.2-1.16-0.37-1.75-0.51
	c-0.04-0.01-0.07-0.02-0.11-0.03c-0.58-0.13-1.16-0.22-1.75-0.29c-0.06-0.01-0.12-0.02-0.18-0.02c-0.58-0.06-1.16-0.09-1.75-0.09
	c-0.07,0-0.14,0-0.21,0c-0.58,0.01-1.15,0.04-1.73,0.1c-0.04,0.01-0.09,0-0.13,0.01c0.04,0,0.07,0,0.11-0.01
	c-0.98,0.11-1.95,0.3-2.88,0.57c0,0,0,0,0-0.01c-0.06,0.02-0.11,0.04-0.17,0.06c-0.34,0.11-0.68,0.22-1.01,0.35
	c-0.07,0.03-0.15,0.05-0.22,0.08c-0.39,0.16-0.77,0.33-1.15,0.52c-0.07,0.04-0.14,0.08-0.21,0.11c-0.3,0.16-0.6,0.33-0.88,0.52
	c-0.09,0.06-0.19,0.12-0.28,0.18c-0.34,0.23-0.68,0.47-0.99,0.74c-0.07,0.04-0.14,0.08-0.21,0.12c-0.09,0.09-0.18,0.18-0.27,0.27
	c-0.16,0.21-0.31,0.41-0.44,0.62c0.02,0,0.03-0.01,0.05-0.01c0.02-0.01,0.04-0.02,0.06-0.04c0.01-0.01,0.01-0.02,0.02-0.03
	c0.34-0.38,0.84-0.67,1.28-0.96c0.27-0.17,0.56-0.37,0.85-0.54c-0.26,0.23-0.51,0.47-0.78,0.69c-0.18,0.15-0.46,0.35-0.58,0.57
	c0.43-0.25,0.9-0.47,1.34-0.71c0.37-0.2,0.73-0.39,1.11-0.56c0.2-0.13,0.41-0.24,0.61-0.35c0.32-0.17,0.67-0.35,1.03-0.52
	c-0.07,0.04-0.13,0.1-0.16,0.19c-0.03,0.08,0.05,0.15,0.14,0.16c0.22,0.03,0.37-0.02,0.58-0.09c0.53-0.18,1.14-0.25,1.7-0.34
	c0.08-0.01,0.16-0.03,0.25-0.04c-0.27,0.14-0.54,0.28-0.81,0.43c-0.83,0.46-1.91,0.95-2.45,1.68c-0.01,0.01-0.01,0.01-0.01,0.02
	c0.27-0.07,0.55-0.12,0.82-0.19c0.3-0.08,0.61-0.15,0.91-0.23c0.08-0.03,0.16-0.07,0.24-0.1c0.74-0.3,1.5-0.59,2.25-0.87
	c0.4-0.15,0.8-0.26,1.21-0.37c-0.27,0.12-0.53,0.25-0.79,0.38c-0.58,0.29-1.14,0.61-1.67,0.95c-0.29,0.19-0.56,0.23-0.65,0.55
	c0,0.01,0,0.03,0.01,0.04c0.6-0.25,1.21-0.47,1.85-0.64c0.05-0.01,0.08,0,0.11,0.02c0.28-0.13,0.56-0.25,0.84-0.35
	c0.1-0.04,0.21-0.07,0.31-0.11c-0.91,0.51-1.96,1.24-2.46,2.05c-0.04,0.07,0.02,0.12,0.09,0.15c0.38-0.16,0.76-0.31,1.13-0.47
	c0.48-0.31,1.04-0.55,1.55-0.81c0.37-0.18,0.74-0.35,1.12-0.51c-0.15,0.11-0.29,0.21-0.43,0.32c-0.44,0.36-1.1,0.77-1.39,1.23
	c-0.01,0.01-0.01,0.03-0.01,0.04c0.43-0.25,0.96-0.38,1.4-0.59c0.89-0.44,1.75-0.91,2.76-1.11c0.04-0.01,0.07,0,0.1,0.02
	c0.37-0.12,0.75-0.22,1.14-0.32c-0.02,0.02-0.03,0.05-0.04,0.07c-0.02,0.07,0.03,0.14,0.1,0.16c-0.27,0.1-0.53,0.2-0.8,0.31
	c-0.12,0.05,0.02,0.19,0.11,0.17c0.95-0.17,1.85-0.19,2.75-0.06c-0.54,0.12-1.07,0.28-1.58,0.48c-1.19,0.46-2.42,0.95-3.32,1.78
	c-0.01,0.01-0.02,0.03-0.02,0.05c0.81-0.34,1.66-0.61,2.55-0.73c1.11-0.36,2.23-0.62,3.4-0.6c-0.17,0.05-0.34,0.1-0.5,0.15
	c-0.83,0.27-1.54,0.57-2.15,1.13c-0.45,0.41-0.82,0.85-1.27,1.24c-0.97-0.14-1.93-0.17-2.94-0.05c-0.03,0-0.05,0.05-0.01,0.06
	c0.56,0.04,1.14,0.01,1.7,0.04c0.12,0.01,0.24,0.02,0.36,0.03c-0.5,0.01-1.01,0.05-1.48,0.15c-0.5-0.05-1-0.07-1.5-0.05
	c-0.48,0.03-0.95,0.1-1.42,0.17c-0.25,0.07-0.49,0.14-0.73,0.22c0.16,0.02,0.32,0.03,0.49,0.02c-0.02,0.02-0.02,0.04-0.01,0.05
	c-0.28,0.02-0.57,0.05-0.85,0.1c-0.09,0.01-0.18,0.04-0.27,0.05c-0.38,0.14-0.75,0.29-1.12,0.45c0.39-0.04,0.8-0.19,1.15-0.25
	c0.69-0.12,1.39-0.13,2.09-0.13c-0.16,0.03-0.31,0.07-0.47,0.11c-0.21,0.02-0.43,0.04-0.64,0.06c-1.24,0.15-2.7,0.54-3.73,1.27
	c-0.05,0.04,0,0.09,0.05,0.06c0.17-0.09,0.35-0.17,0.54-0.24c-1.11,0.53-2.32,1.23-3.04,2.24c-0.04,0.06,0.06,0.07,0.09,0.04
	c0.53-0.49,1.15-0.97,1.82-1.39c-0.21,0.17-0.42,0.35-0.61,0.54c-0.13,0.1-0.25,0.2-0.37,0.29c-0.36,0.27-0.7,0.56-1.01,0.89
	c-0.24,0.25-0.38,0.7-0.66,0.89c-0.05,0.03,0,0.07,0.04,0.05c0.16-0.08,0.25-0.22,0.36-0.37c0.24-0.32,0.54-0.6,0.84-0.86
	c-0.09,0.12-0.18,0.24-0.27,0.36c-0.28,0.25-0.55,0.5-0.8,0.78c-0.55,0.6-1.29,1.38-1.37,2.22c0,0.01,0,0.01,0,0.01
	c-0.34,0.52-0.62,1.09-0.63,1.64c-0.24,0.46-0.43,0.93-0.45,1.42C4.56,31.49,4.71,31.46,4.71,31.38z M27.54,37.29
	c0-0.16-0.01-0.31-0.01-0.47c0.02,0.06,0.05,0.11,0.07,0.17C27.57,37.09,27.55,37.19,27.54,37.29z M36.77,27.41
	c0.11,0,0.21,0,0.32,0.01c-0.01,0.06-0.01,0.12-0.02,0.18c-0.11-0.04-0.23-0.07-0.34-0.1C36.74,27.47,36.76,27.44,36.77,27.41z
	 M28.56,99.95C28.56,99.95,28.56,99.95,28.56,99.95c-0.07-0.03-0.15-0.06-0.22-0.09c0.06,0,0.12,0,0.18,0
	c0.03,0.04,0.05,0.07,0.08,0.11C28.59,99.96,28.58,99.96,28.56,99.95z M18.15,73.46c0-0.02,0-0.04,0-0.06
	c0.07-0.04,0.14-0.08,0.21-0.12C18.28,73.34,18.22,73.4,18.15,73.46z M22.83,66.52c-0.21-0.14-0.43-0.27-0.66-0.38
	c0.01,0,0.01,0,0.01,0c0.12-0.05,0.24-0.09,0.37-0.13c0.3-0.09,0.61-0.17,0.92-0.21c0.01,0.03,0.03,0.05,0.04,0.08
	C23.25,66.03,23.02,66.26,22.83,66.52z M23.65,65.76c0.01,0,0.01,0,0.02,0C23.67,65.76,23.67,65.77,23.65,65.76
	C23.66,65.76,23.66,65.76,23.65,65.76z M27.82,67.24c0.08-0.04,0.19-0.05,0.29-0.07c-0.03,0.02-0.06,0.04-0.1,0.07
	C27.95,67.24,27.88,67.24,27.82,67.24z M30.57,66.12c-0.19-0.07-0.38-0.11-0.58-0.15c-0.12-0.02-0.84-0.13-0.1-0.12
	c0.6,0.01,1.27,0.08,1.9,0.23c-0.02,0.36-0.04,0.72-0.06,1.08c-0.21,0-0.42,0-0.63,0.04h0c0.16-0.06,0.33-0.12,0.51-0.17
	c-0.14-0.01-0.29-0.01-0.43-0.03c-0.01,0-0.01,0-0.02,0c-0.06,0.01-0.12,0.02-0.19,0.03c-0.28,0.02-0.58,0.01-0.85,0.11
	c-0.15,0.06-0.29,0.12-0.44,0.2c0.17-0.19,0.37-0.35,0.64-0.42c0.02-0.01,0.04-0.02,0.05-0.04c-0.09-0.01-0.19-0.02-0.29-0.02
	c-0.01,0-0.02,0-0.04,0c-0.33,0.06-0.66,0.14-0.94,0.33c-0.05,0.03-0.09,0.07-0.13,0.11c0.16-0.18,0.35-0.32,0.59-0.43
	c0,0,0-0.01,0-0.01c-0.1,0.01-0.2,0.01-0.3,0.02c0.11-0.05,0.22-0.1,0.34-0.14c-0.13-0.04-0.26-0.07-0.41-0.08
	c-0.21-0.01-0.4,0.03-0.6,0c0.57-0.19,1.23-0.22,1.88-0.16c0.03,0,0.05-0.01,0.08-0.02c0.24-0.04,0.48-0.07,0.72-0.1
	C31.06,66.31,30.82,66.21,30.57,66.12z M31.58,70.03c-0.01-0.02-0.03-0.05-0.04-0.07c0.03,0.02,0.06,0.04,0.08,0.06
	c0,0.02,0,0.04,0,0.06C31.61,70.07,31.59,70.05,31.58,70.03z M30.72,69.86c-0.02-0.03-0.05-0.06-0.06-0.09
	c0.01,0.01,0.02,0.01,0.02,0.01c0.01,0.01,0.02,0.01,0.03,0.02C30.71,69.83,30.72,69.84,30.72,69.86z M29.92,71.27
	c-0.06-0.06-0.12-0.12-0.18-0.17c0.02-0.07,0.04-0.14,0.07-0.21c0,0,0.01,0,0.01,0c0,0-0.01-0.01-0.01-0.01
	c0-0.02,0.01-0.03,0.01-0.05c0.04-0.13,0.1-0.27,0.15-0.43C29.96,70.69,29.94,70.98,29.92,71.27z M27.12,69.27
	c-0.01,0-0.02,0-0.03,0c-0.08-0.2-0.15-0.41-0.25-0.61c0.05,0.01,0.09,0.01,0.14,0.02c0.15,0.15,0.25,0.36,0.33,0.57
	C27.25,69.26,27.18,69.26,27.12,69.27z M26.72,68.64c0.09,0.2,0.16,0.41,0.23,0.62h0c-0.09-0.1-0.18-0.2-0.26-0.29
	c-0.13-0.14-0.27-0.27-0.42-0.4c-0.01,0-0.01-0.01-0.02-0.02C26.41,68.59,26.58,68.61,26.72,68.64z M28.45,69.93c0.11,0,0.2,0,0.3,0
	c0.01,0.01,0.03,0.02,0.04,0.03C28.68,69.95,28.56,69.94,28.45,69.93z M28.85,70.16c0,0.02,0,0.04,0,0.05
	c-0.05-0.02-0.09-0.05-0.15-0.06c-0.06-0.01-0.12-0.02-0.18-0.03C28.63,70.13,28.74,70.14,28.85,70.16z M28.74,69.31
	c0,0.01,0,0.02,0,0.03c-0.03-0.07-0.06-0.13-0.08-0.2c0.01,0.01,0.03,0.02,0.04,0.03C28.72,69.22,28.73,69.26,28.74,69.31z
	 M29.14,70.69c0.07,0.01,0.14,0.01,0.21,0.02c-0.01,0.04-0.01,0.08-0.02,0.11c-0.07-0.03-0.14-0.06-0.21-0.09
	C29.12,70.72,29.13,70.71,29.14,70.69z M29.41,70.41c0,0.02-0.01,0.04-0.01,0.07c-0.04-0.03-0.07-0.05-0.11-0.08
	c0.05-0.1,0.1-0.21,0.14-0.31C29.42,70.21,29.42,70.32,29.41,70.41z M26.8,68.3c-0.01,0-0.02,0-0.03,0.01
	c-0.1-0.02-0.21-0.04-0.31-0.03c-0.1,0-0.2,0-0.3,0.01c0.09-0.03,0.18-0.07,0.27-0.1c0.26-0.11,0.6-0.32,0.86-0.24
	C27.13,68.12,26.96,68.32,26.8,68.3z M28.31,74.62c0.01,0.01,0.02,0.02,0.02,0.03c0,0.01,0,0.02,0,0.04
	C28.32,74.67,28.31,74.65,28.31,74.62C28.31,74.63,28.31,74.63,28.31,74.62z M28.71,75.19c0.03,0.06,0.07,0.11,0.1,0.17
	c0.01,0.07,0.02,0.15,0.03,0.22c0.01,0.1,0,0.21,0,0.31c-0.04-0.15-0.08-0.29-0.15-0.43c-0.01-0.03-0.02-0.05-0.04-0.07
	C28.68,75.31,28.7,75.25,28.71,75.19z M30.99,73.86c-0.22-0.23-0.44-0.46-0.68-0.67c0.29,0.17,0.57,0.35,0.81,0.57
	c0.21,0.2,0.35,0.43,0.51,0.66c0,0.05,0,0.1,0,0.15c0,0.09,0,0.18-0.01,0.28c-0.03-0.07-0.05-0.14-0.09-0.2
	C31.38,74.35,31.22,74.1,30.99,73.86z M31.61,75.31c0,0.2-0.01,0.4-0.01,0.6c-0.02-0.25-0.05-0.51-0.17-0.72
	c-0.07-0.12-0.15-0.24-0.23-0.36C31.37,74.97,31.51,75.13,31.61,75.31z M31.63,74.36c-0.06-0.26-0.13-0.51-0.21-0.76
	c0-0.01,0-0.02,0-0.02c-0.24-0.31-0.53-0.59-0.77-0.85c-0.08-0.09-0.18-0.19-0.29-0.29c0.15,0.09,0.29,0.18,0.42,0.29
	c0.12,0.15,0.25,0.29,0.39,0.41c0.05,0.05,0.17,0,0.13-0.07c-0.1-0.15-0.23-0.28-0.38-0.4c-0.25-0.31-0.49-0.64-0.8-0.91
	c0-0.01,0.01-0.03,0.01-0.04c0.12,0.07,0.24,0.13,0.36,0.21c-0.09-0.11-0.18-0.23-0.25-0.35c0,0-0.01-0.01-0.01-0.01
	c-0.01-0.01-0.03-0.02-0.04-0.03c0.13-0.4,0.22-0.8,0.29-1.21c0.03,0.01,0.05,0.02,0.07,0.03c-0.02-0.03-0.05-0.05-0.07-0.07
	c0.01-0.07,0.03-0.13,0.04-0.2c0.08,0.05,0.16,0.1,0.25,0.16c0.01,0.07,0.02,0.15,0.03,0.22c0,0.04,0.01,0.08,0.01,0.12
	c0.07,0.26,0.13,0.52,0.19,0.77c0.12,0.14,0.14,0.45,0.16,0.58c0.01,0.03,0.01,0.07,0.01,0.1c0.01,0.03,0.01,0.05,0.02,0.08
	c0,0,0,0,0,0c-0.02-0.49,0.15-0.92,0.24-1.39c0.02-0.13,0.03-0.26,0.03-0.38c0.05,0.03,0.1,0.07,0.15,0.1
	c-0.01,0.65-0.01,1.29,0,1.92h0C31.62,73.02,31.63,73.69,31.63,74.36z M28.36,86.06c-0.02-0.24-0.03-0.48-0.06-0.71
	c-0.04-0.34-0.09-0.68-0.15-1.03c-0.26-1.4-0.42-2.82-0.3-4.24c0.01-0.05,0.01-0.11,0.01-0.16h0c0.05-0.54,0.08-1.08,0.12-1.61
	c0.02-0.06,0.04-0.11,0.05-0.17c0.05-0.21,0.09-0.43,0.12-0.65c0.01,0.07,0.02,0.13,0.03,0.2c0.04,0.37-0.01,0.75,0.03,1.13
	c0,0.01,0.02,0.03,0.04,0.03c0.02-0.03,0.04-0.05,0.06-0.08c0.01-0.03,0.03-0.06,0.04-0.09c0.09-0.33,0.12-0.68,0.21-1.01
	c0.07-0.26,0.15-0.54,0.1-0.8c-0.02-0.14-0.05-0.28-0.09-0.42c0.13,0.22,0.23,0.44,0.25,0.69c-0.01,0.1-0.01,0.19-0.01,0.29
	c0,0.02,0.01,0.03,0.03,0.05c0,0,0-0.01,0-0.01c0.03-0.12,0.04-0.23,0.06-0.35c0.01-0.03,0.03-0.04,0.05-0.05
	c0.01-0.18,0.02-0.36,0.01-0.54c0.02,0.07,0.04,0.15,0.04,0.22c0.15-0.26,0.22-0.59,0.24-0.92c0.03,0.15,0.06,0.29,0.08,0.44
	c0.06,0.35,0.07,0.69,0.08,1.04c0.05,0.2,0.1,0.4,0.13,0.6c0.02-0.01,0.03-0.02,0.03-0.03c0.17-0.4,0.28-0.83,0.3-1.25
	c0.1,0.34,0.21,0.67,0.26,1.02c0.04,0.33,0.03,0.69,0.05,1.04c0.07,0.25,0.14,0.5,0.2,0.76c0.02,0,0.04-0.01,0.06-0.03
	c0.12-0.13,0.2-0.32,0.25-0.52c0.02,0.13,0.04,0.26,0.05,0.39c0.02,0.21,0.01,0.43,0.01,0.64c0.01,0.01,0.02,0.02,0.02,0.04
	c0.02,0.07,0.04,0.14,0.05,0.2c0.06-0.15,0.12-0.29,0.17-0.44c0.04-0.36,0.06-0.73,0.04-1.09c-0.01-0.19-0.01-0.38-0.02-0.57
	c0.06,0.23,0.11,0.47,0.14,0.72c-0.02,0.05-0.01,0.09,0.01,0.11c0.01,0.05,0.01,0.09,0.02,0.14c0,0.02,0.04,0.03,0.06,0.02
	c0.01-0.02,0.01-0.04,0.02-0.05c0.01-0.78,0.2-1.6,0.09-2.37c-0.03-0.22-0.06-0.44-0.12-0.65c0.03,0.06,0.07,0.11,0.09,0.17
	c0.12,0.25,0.21,0.52,0.31,0.78c-0.02,0.63-0.04,1.27-0.07,1.91c-0.07,1.5-0.15,2.99-0.22,4.49c-0.01,0.19-0.02,0.38-0.03,0.57
	c0,0,0,0,0.01,0c-0.06,1.22-0.12,2.44-0.15,3.65c-0.04,1.4-0.04,2.79-0.03,4.17c0,0,0-0.01-0.01-0.01c0,0.59,0.01,1.17,0.03,1.76
	c-0.97,0.5-1.84,1.19-2.91,1.45c0,0-0.01,0-0.01,0c0.06-0.67,0.06-1.34,0.02-2.02c-0.01-0.18-0.01-0.37-0.01-0.55
	c-0.01-0.56,0-1.11,0.03-1.67c0-0.03,0-0.05,0.01-0.08c0.03-0.55,0.08-1.11,0.12-1.66c0.01-0.11,0.02-0.21,0.02-0.31
	c0.06-0.76,0.07-1.51,0.03-2.25h0C28.38,86.26,28.37,86.16,28.36,86.06z M19.93,94.51c0-0.01,0-0.02,0-0.03c0,0,0,0,0-0.01
	c0-0.01,0-0.01,0-0.02c0-0.01,0.01-0.01,0.01-0.01c0.02,0.01,0.03,0.02,0.05,0.03C19.97,94.49,19.95,94.5,19.93,94.51z M29.42,99.81
	c0.01,0,0.03,0,0.04-0.01c-0.02,0.01-0.04,0.02-0.05,0.03C29.42,99.82,29.42,99.82,29.42,99.81z M31.83,65.57
	c-0.02-0.01-0.04-0.02-0.07-0.04c0.02,0,0.05,0.01,0.07,0.01C31.83,65.56,31.83,65.56,31.83,65.57z M29.02,67.02
	c0.05-0.02,0.1-0.04,0.14-0.06c-0.13,0.08-0.25,0.19-0.36,0.29C28.87,67.17,28.94,67.1,29.02,67.02z M28.49,67.1
	C28.49,67.1,28.5,67.1,28.49,67.1L28.49,67.1C28.5,67.1,28.49,67.1,28.49,67.1z M18.14,72.43c0.02-0.02,0.04-0.04,0.06-0.05
	c0.01-0.01,0.03-0.01,0.04-0.01c0.13-0.15,0.25-0.3,0.38-0.45c0.09-0.1,0.19-0.2,0.3-0.29c-0.01,0.02-0.02,0.05-0.03,0.07
	c-0.02,0.05-0.04,0.09-0.07,0.13c-0.07,0.05-0.14,0.09-0.21,0.14c0,0.01-0.01,0.01-0.01,0.02c-0.17,0.23-0.33,0.46-0.48,0.7
	C18.13,72.61,18.13,72.52,18.14,72.43z M21.1,93.4c-0.04,0.01-0.08,0.03-0.11,0.04c0.04-0.03,0.08-0.06,0.12-0.09
	C21.1,93.36,21.1,93.38,21.1,93.4z M31.86,64.95c-0.01,0-0.02-0.01-0.03-0.01c-0.04-0.02-0.08-0.05-0.12-0.07
	c0.05,0,0.1,0.01,0.15,0.01C31.86,64.91,31.86,64.93,31.86,64.95z M24.53,68.54c-0.05-0.01-0.11-0.02-0.16-0.03
	c-0.07-0.02-0.13-0.04-0.19-0.06c-0.12-0.03-0.24-0.04-0.37-0.05c0.23-0.02,0.5,0.07,0.72,0.12c0,0,0,0,0.01,0
	C24.53,68.53,24.53,68.54,24.53,68.54z M17.7,73.22c0.02,0.07,0.04,0.14,0.06,0.21c-0.02,0.02-0.03,0.05-0.05,0.07
	C17.71,73.41,17.7,73.32,17.7,73.22z M18.12,72.99c0-0.08,0-0.16,0-0.24c0.23-0.18,0.44-0.38,0.71-0.53
	c0.09-0.05,0.18-0.09,0.27-0.13c0,0.05,0,0.09,0.01,0.14c-0.06,0.04-0.13,0.07-0.19,0.11C18.62,72.53,18.37,72.75,18.12,72.99z
	 M19.58,71.92c0.02-0.01,0.04-0.03,0.06-0.04c0.06-0.02,0.12-0.05,0.19-0.07c-0.09,0.04-0.17,0.1-0.25,0.15
	C19.57,71.95,19.58,71.93,19.58,71.92z M20.16,33.61c-0.01-0.03-0.01-0.06-0.02-0.09c0.1-0.07,0.19-0.15,0.3-0.22
	C20.35,33.4,20.26,33.51,20.16,33.61z M30.17,24.26c-0.01,0-0.02-0.01-0.03-0.02c-0.59-0.58-1.51-0.95-2.23-1.31
	c-0.3-0.18-0.61-0.35-0.92-0.52c0.38-0.29,0.82-0.52,1.34-0.67c0.49,0.16,1.01,0.29,1.44,0.52c0.09,0.25,0.13,0.54,0.19,0.77
	c0.12,0.46,0.27,0.97,0.53,1.38c0,0,0,0,0,0.01c-0.09-0.06-0.19-0.1-0.28-0.14C30.19,24.27,30.18,24.27,30.17,24.26z M27.38,20.7
	c0.01,0,0.02,0,0.04-0.01c-0.01,0-0.01,0.01-0.02,0.02C27.39,20.71,27.39,20.7,27.38,20.7z M35.9,25.34
	c0.01,0.05,0.02,0.09,0.03,0.14c-0.07-0.12-0.13-0.25-0.18-0.38c0.02,0.01,0.05,0.02,0.07,0.04C35.85,25.2,35.88,25.27,35.9,25.34z
	 M31.27,29.51c0-0.02,0-0.05-0.01-0.07c0.05-0.04,0.08-0.09,0.13-0.13c0.01,0.01,0.03,0.01,0.04,0.02
	c-0.03,0.11-0.04,0.22-0.06,0.33C31.34,29.61,31.31,29.56,31.27,29.51z M30.66,25.59c0.07,0.23,0.16,0.45,0.2,0.64
	c0.03,0.11,0.07,0.21,0.11,0.33c-0.04,0.1-0.11,0.2-0.17,0.3c-0.11-0.32-0.21-0.65-0.25-0.97C30.58,25.78,30.62,25.69,30.66,25.59z
	 M31.69,26.24c-0.12-0.06-0.21-0.12-0.25-0.22c-0.01-0.01-0.02-0.03-0.03-0.04c-0.04-0.15-0.09-0.3-0.17-0.45
	c0.09,0.11,0.18,0.23,0.25,0.33c0.06,0.09,0.14,0.18,0.21,0.27C31.7,26.18,31.69,26.21,31.69,26.24z M31.17,24.74
	c0,0,0.01,0.01,0.01,0.01C31.18,24.75,31.18,24.75,31.17,24.74C31.17,24.75,31.17,24.74,31.17,24.74z M31.23,24.79
	c-0.02-0.01-0.03-0.03-0.05-0.05c0.07-0.08,0.13-0.16,0.2-0.24c0,0,0.01,0,0.01,0c0.01,0,0.02,0.01,0.03,0
	c0.38,0.16,0.92,0.1,1.29,0.14c0.11,0.01,0.22,0.01,0.34,0.01c0.27,0.2,0.45,0.51,0.61,0.84c-0.09,0.02-0.19,0.03-0.29,0.05
	c-0.47,0-1.18,0.2-1.41-0.06c-0.01-0.01-0.02-0.02-0.04-0.02c-0.1-0.14-0.2-0.26-0.33-0.38C31.47,24.99,31.35,24.88,31.23,24.79z
	 M32.71,24.11c-0.02,0-0.03,0.01-0.04,0.01c-0.16-0.01-0.33-0.02-0.5,0.01c-0.15,0.02-0.31,0.04-0.46,0.07
	c0.13-0.07,0.27-0.14,0.4-0.21c0.39-0.22,0.87-0.6,1.3-0.52C33.19,23.77,32.96,24.1,32.71,24.11z M31.5,31.38
	c-0.01,0.05-0.02,0.11-0.04,0.16c-0.01-0.02-0.01-0.03-0.02-0.05C31.46,31.46,31.48,31.42,31.5,31.38z M31.31,32.45
	c-0.01,0.01-0.01,0.03-0.02,0.05c-0.04-0.08-0.08-0.16-0.13-0.24c0.05,0.05,0.1,0.11,0.15,0.17C31.31,32.44,31.31,32.45,31.31,32.45
	z M31.17,37.51c0,0.02,0,0.03,0,0.05c-0.01-0.03-0.02-0.06-0.04-0.09C31.15,37.48,31.16,37.49,31.17,37.51z M31.24,39.12
	c0,0.01,0,0.01,0,0.02c0-0.01-0.01-0.02-0.01-0.03C31.23,39.11,31.24,39.12,31.24,39.12z M20.05,31.92
	c0.02-0.02,0.04-0.02,0.07-0.03c0.18-0.25,0.34-0.51,0.51-0.76c0.12-0.18,0.26-0.34,0.41-0.5c-0.01,0.04-0.02,0.08-0.04,0.12
	c-0.02,0.08-0.05,0.14-0.08,0.22c-0.1,0.09-0.2,0.17-0.3,0.26c0,0.01-0.01,0.02-0.01,0.04c-0.23,0.38-0.43,0.78-0.63,1.18
	c-0.01-0.14-0.02-0.29-0.02-0.43C20,31.98,20.02,31.95,20.05,31.92z M19.41,33.32c0.04,0.11,0.09,0.21,0.13,0.32
	c-0.02,0.04-0.05,0.08-0.07,0.12C19.46,33.62,19.43,33.47,19.41,33.32z M20.04,32.9c-0.02-0.13-0.03-0.25-0.04-0.38
	c0.33-0.33,0.62-0.67,1.01-0.94c0.13-0.09,0.26-0.16,0.4-0.25c0.01,0.07,0.02,0.14,0.03,0.21c-0.09,0.07-0.18,0.13-0.27,0.2
	C20.73,32.09,20.38,32.47,20.04,32.9z M22.11,30.98c0.03-0.03,0.06-0.05,0.09-0.08c0.09-0.04,0.18-0.09,0.27-0.13
	c-0.12,0.08-0.24,0.18-0.36,0.27C22.11,31.02,22.11,31,22.11,30.98z M30.71,30.35c-0.01-0.06-0.02-0.13-0.03-0.19
	c0.01-0.03,0.03-0.05,0.04-0.07c0.16,0.08,0.32,0.18,0.47,0.29c-0.07,0.13-0.13,0.26-0.19,0.39c-0.01,0.05-0.01,0.09-0.02,0.14
	C30.9,30.72,30.8,30.54,30.71,30.35z M31.49,41.35c0.03,0.23,0.07,0.46,0.1,0.7c0.03,0.2,0.05,0.4,0.07,0.6
	c-0.01-0.03-0.03-0.06-0.04-0.09c-0.23-0.56-0.36-1.15-0.51-1.73C31.22,41.01,31.36,41.18,31.49,41.35z M35.56,26.35
	c0.16-0.02,0.3-0.03,0.45-0.04c0.02,0.01,0.05,0.03,0.07,0.04C35.9,26.34,35.73,26.34,35.56,26.35z M30.72,24.38
	c0-0.01,0-0.01,0.01-0.02c0,0.01,0,0.01,0.01,0.01C30.72,24.38,30.72,24.38,30.72,24.38z M25.72,21.26c0.45-0.2,0.91-0.36,1.4-0.49
	c0.02,0.04,0.05,0.07,0.08,0.11c-0.39,0.31-0.71,0.7-0.95,1.13c-0.36-0.18-0.72-0.34-1.09-0.48c0.01,0,0.01-0.01,0.02-0.01
	C25.34,21.43,25.53,21.34,25.72,21.26z M28.97,24.86c-0.11-0.02-0.21-0.04-0.3-0.05c-0.19-0.03-0.39-0.02-0.59-0.02
	c0.35-0.08,0.8,0.02,1.15,0.06c0.3,0.03,0.62,0.05,0.94,0.04C29.83,24.97,29.34,24.85,28.97,24.86z M19.56,34.35
	c-0.02-0.08-0.02-0.16-0.04-0.24c0.04-0.06,0.1-0.11,0.15-0.16c0.03,0.06,0.05,0.12,0.08,0.18c-0.06,0.11-0.12,0.21-0.17,0.33
	C19.58,34.42,19.57,34.39,19.56,34.35z M26.15,67.2c-0.11,0.18-0.24,0.37-0.36,0.57c0-0.12-0.01-0.23-0.03-0.35
	c0-0.01,0.01-0.02,0.01-0.04c-0.02-0.28,0.43-0.53,0.66-0.79c0.03-0.02,0.06-0.05,0.09-0.07C26.39,66.74,26.27,66.97,26.15,67.2z
	 M20.53,65.59c0,0-0.01,0-0.01,0C20.51,65.58,20.51,65.58,20.53,65.59C20.52,65.59,20.52,65.59,20.53,65.59z M23.29,66.83
	c0.26-0.16,0.57-0.27,0.92-0.33c0.29,0.13,0.6,0.25,0.85,0.42c0.04,0.17,0.05,0.35,0.07,0.51c0.04,0.24,0.09,0.51,0.18,0.75
	c-0.06,0-0.12,0.01-0.17,0.02c-0.34-0.4-0.89-0.7-1.31-0.98C23.65,67.08,23.47,66.95,23.29,66.83z M17.72,73.89
	c0-0.05,0-0.1-0.01-0.16c0.03-0.03,0.07-0.06,0.11-0.09c0.01,0.05,0.03,0.09,0.04,0.14c-0.05,0.06-0.1,0.11-0.14,0.18
	C17.72,73.93,17.72,73.91,17.72,73.89z M22.6,76.02c0.01,0.04,0.02,0.08,0.03,0.11c-0.02,0.06-0.04,0.12-0.06,0.18
	C22.59,76.21,22.59,76.11,22.6,76.02z M36.14,33.67c0.02,0.01,0.03,0.03,0.05,0.05c0,0.02,0,0.04,0.01,0.05
	c-0.02-0.03-0.04-0.06-0.05-0.09C36.14,33.68,36.14,33.67,36.14,33.67z M37.77,27.94c0.02-0.11,0.04-0.22,0.06-0.34
	c0.01,0,0.01,0,0.02,0c0-0.01-0.01-0.01-0.01-0.02c0-0.02,0.01-0.05,0.01-0.07c0.04-0.21,0.1-0.44,0.16-0.68
	c0.04,0.45,0.05,0.9,0.07,1.35C37.97,28.1,37.87,28.02,37.77,27.94z M37.12,27.03C37.06,27,37,26.97,36.93,26.94
	c0.06-0.17,0.12-0.33,0.17-0.5c0.02,0.19,0.03,0.36,0.03,0.5C37.13,26.97,37.12,27,37.12,27.03z M36,26.65
	c-0.1-0.01-0.19-0.01-0.29-0.01c0.17-0.02,0.34-0.02,0.52-0.01c0,0.02,0.01,0.04,0.01,0.06C36.15,26.68,36.08,26.66,36,26.65z
	 M35.14,21.95C35.14,21.95,35.14,21.95,35.14,21.95C35.14,21.95,35.14,21.95,35.14,21.95C35.14,21.95,35.14,21.95,35.14,21.95z
	 M34.41,22.24c-0.1,0.01-0.2,0.03-0.3,0.04c0.13-0.08,0.3-0.14,0.47-0.19C34.52,22.14,34.47,22.19,34.41,22.24z M31.52,22.5
	c-0.09,0.2-0.2,0.41-0.3,0.62c-0.05,0.1-0.09,0.19-0.14,0.29c-0.01,0.01-0.01,0.02-0.02,0.03c-0.02-0.19-0.06-0.36-0.11-0.54
	c0-0.02,0.01-0.04,0-0.06c-0.08-0.43,0.58-0.9,0.89-1.34c0.04-0.04,0.08-0.08,0.13-0.12C31.81,21.76,31.65,22.13,31.52,22.5z
	 M22.49,20.97c-0.01,0-0.01,0-0.02,0c0,0,0,0,0,0C22.48,20.97,22.48,20.97,22.49,20.97z M16.04,36.21c0.05,0.37,0.11,0.76,0.11,1.13
	c0,0.08,0.01,0.14,0.02,0.2C16.1,37.1,16.04,36.66,16.04,36.21z M18.69,36.77c0,0,0,0.01,0,0.01c-0.04-0.45-0.06-0.9-0.03-1.36
	c0-0.04,0.02-0.06,0.05-0.08c-0.04-0.26-0.07-0.51-0.09-0.76c-0.01-0.09-0.01-0.18-0.01-0.28c0.11,0.46,0.28,0.96,0.49,1.43
	C18.95,36.08,18.81,36.42,18.69,36.77z M19.8,35.41c0.07-0.09,0.14-0.18,0.21-0.27c-0.07,0.15-0.13,0.3-0.19,0.46
	c-0.01-0.05-0.03-0.11-0.04-0.16C19.78,35.43,19.79,35.42,19.8,35.41z M24,34.18c0.03-0.08,0.06-0.16,0.09-0.25
	c0,0.03,0,0.05,0,0.08C24.07,34.07,24.03,34.13,24,34.18z M24.6,34.7c0.07-0.07,0.13-0.15,0.21-0.22c-0.09,0.13-0.16,0.27-0.24,0.4
	C24.57,34.81,24.59,34.75,24.6,34.7z M13.46,61.05c-0.06,0.01-0.11,0.03-0.16,0.04c0.32-0.11,0.65-0.21,0.99-0.28
	C14.01,60.9,13.73,60.99,13.46,61.05z M19.06,65.1c0.3-0.08,0.61-0.16,0.92-0.24c0.05-0.02,0.09-0.03,0.13-0.05
	c0.44-0.16,0.86-0.32,1.31-0.43c-0.2,0.11-0.39,0.24-0.56,0.34c-0.27,0.16-0.52,0.36-0.77,0.56c-0.21-0.03-0.42-0.06-0.62-0.11
	c-0.01,0.02,0,0.03,0.03,0.04c0.15,0.05,0.3,0.11,0.45,0.17c-0.03,0.03-0.07,0.05-0.1,0.07c-0.14-0.03-0.28-0.07-0.42-0.09
	c-0.07-0.03-0.15-0.05-0.22-0.08c-0.16-0.05-0.31-0.1-0.47-0.14C18.85,65.1,18.97,65.08,19.06,65.1z M10.37,67.92
	c-0.02,0.03-0.04,0.05-0.07,0.08c-0.05,0.06-0.1,0.11-0.15,0.17c-0.14,0.14-0.28,0.27-0.41,0.42c-0.1,0.11-0.22,0.24-0.33,0.37
	C9.61,68.55,10.03,68.21,10.37,67.92z M8.93,69.88c0.15-0.33,0.4-0.63,0.66-0.91c-0.06,0.1-0.11,0.2-0.16,0.29
	c-0.03,0.04-0.06,0.07-0.08,0.11C9.21,69.53,9.07,69.7,8.93,69.88z M15.34,75.54c0,0.05-0.01,0.09,0,0.13
	c-0.01-0.28-0.02-0.57,0.01-0.86C15.35,75.06,15.36,75.31,15.34,75.54z M17,75.35c0.01-0.28,0.02-0.56,0.06-0.85
	c0-0.03,0.02-0.04,0.04-0.04c0-0.17-0.01-0.33,0-0.49c0-0.06,0.01-0.12,0.01-0.18c0.04,0.3,0.11,0.63,0.21,0.95
	C17.21,74.94,17.1,75.14,17,75.35z M17.79,74.57c0.05-0.06,0.1-0.11,0.16-0.16c-0.06,0.09-0.1,0.18-0.16,0.28
	c0-0.04-0.01-0.07-0.01-0.11C17.78,74.58,17.79,74.58,17.79,74.57z M20.55,74.09c0.03-0.05,0.05-0.1,0.08-0.15
	c0,0.02,0,0.04-0.01,0.05C20.6,74.03,20.58,74.06,20.55,74.09z M20.89,74.48c0.05-0.05,0.1-0.1,0.15-0.15
	c-0.06,0.07-0.12,0.15-0.18,0.23C20.87,74.53,20.88,74.51,20.89,74.48z M36.85,73.34c-0.07-0.22-0.11-0.47-0.15-0.71
	c0.08,0.27,0.14,0.55,0.18,0.84C36.87,73.42,36.86,73.38,36.85,73.34z M36.83,34.78c0.02-0.1,0.03-0.2,0.05-0.3
	c0.06,0.08,0.13,0.16,0.19,0.24c0.03,0.11,0.06,0.23,0.08,0.34c0.04,0.18,0.06,0.36,0.08,0.55c-0.09-0.24-0.19-0.48-0.33-0.72
	C36.87,34.85,36.85,34.82,36.83,34.78z M39.07,25.85c-0.03-0.04-0.08-0.08-0.11-0.12c0.02,0.01,0.03,0.01,0.04,0.02
	c0.02,0.01,0.03,0.02,0.05,0.03C39.05,25.8,39.06,25.83,39.07,25.85z M40.44,25.97c-0.03-0.03-0.05-0.07-0.08-0.1
	c0.16,0.08,0.31,0.17,0.46,0.26c0.08,0.15,0.16,0.3,0.24,0.46C40.83,26.41,40.62,26.21,40.44,25.97z M42.68,25.91
	c-0.01-0.04-0.03-0.08-0.04-0.12c0.13,0.06,0.25,0.11,0.38,0.17c0.06,0.12,0.13,0.24,0.18,0.37c0.03,0,0.05,0.02,0.07,0.05
	c0.06,0.09,0.09,0.18,0.14,0.27C43.17,26.39,42.93,26.15,42.68,25.91z M49.19,30.2c-0.15-0.34-0.25-0.72-0.36-1.07
	c0.18,0.41,0.31,0.84,0.43,1.27C49.25,30.33,49.23,30.27,49.19,30.2z M35.63,22.14c0.11-0.14,0.2-0.27,0.3-0.41
	c0.07-0.04,0.14-0.07,0.21-0.11C35.96,21.78,35.79,21.95,35.63,22.14z M10.73,15.14c-0.09,0.03-0.16,0.06-0.23,0.09
	c0.48-0.23,0.97-0.44,1.48-0.6C11.56,14.81,11.15,15.01,10.73,15.14z M20.14,20.46c0.46-0.18,0.92-0.36,1.38-0.53
	c0.07-0.03,0.13-0.07,0.2-0.1c0.65-0.32,1.29-0.65,1.95-0.9c-0.29,0.21-0.57,0.44-0.81,0.63c-0.39,0.31-0.77,0.65-1.13,1
	c-0.32-0.02-0.64-0.03-0.95-0.07c0,0.03,0.01,0.05,0.05,0.06c0.24,0.06,0.48,0.12,0.72,0.19c-0.04,0.04-0.08,0.07-0.11,0.11
	c-0.23-0.02-0.46-0.04-0.69-0.05c-0.12-0.03-0.24-0.06-0.36-0.08c-0.25-0.05-0.5-0.1-0.75-0.14C19.81,20.51,19.99,20.46,20.14,20.46
	z M7.11,26.35c-0.03,0.05-0.06,0.09-0.09,0.14c-0.07,0.1-0.14,0.19-0.21,0.29c-0.19,0.23-0.38,0.47-0.57,0.72
	c-0.14,0.19-0.3,0.4-0.45,0.62C6.04,27.45,6.63,26.86,7.11,26.35z M6.08,28.12c-0.07,0.16-0.13,0.32-0.2,0.48
	c-0.04,0.06-0.08,0.12-0.11,0.18c-0.18,0.27-0.37,0.56-0.55,0.87C5.38,29.11,5.73,28.59,6.08,28.12z"/>
</svg>
