<svg width="430" height="430" viewBox="0 0 430 430" fill="none" xmlns="http://www.w3.org/2000/svg">
<path d="M242.075 189.12L251.265 202.85L301.205 226.23C324.995 228.36 326.085 204.7 326.085 204.7L269.785 178.41L239.405 129.55L237.785 126.94" stroke="#08A88A" stroke-width="12" stroke-linecap="round" stroke-linejoin="round"/>
<path d="M210.475 27.84H215.275C220.858 27.84 226.212 30.0577 230.159 34.0054C234.107 37.953 236.325 43.3072 236.325 48.89V80.6C236.325 82.2708 235.661 83.8733 234.48 85.0548C233.298 86.2362 231.696 86.9 230.025 86.9H210.475C204.892 86.9 199.538 84.6822 195.59 80.7346C191.643 76.7869 189.425 71.4328 189.425 65.85V48.85C189.435 43.2741 191.658 37.9302 195.604 33.9912C199.551 30.0522 204.899 27.84 210.475 27.84V27.84Z" stroke="#121331" stroke-width="12" stroke-linecap="round" stroke-linejoin="round"/>
<path d="M178.085 218.06L169.475 287.37L103.915 353.15L142.805 392.06C155.955 388.86 147.945 361.26 147.945 361.26L203.225 309.7L215.595 280.52" stroke="#121331" stroke-width="12" stroke-linecap="round" stroke-linejoin="round"/>
<path d="M178.085 218.06L232.285 308.3L233.285 402.16H287.155C295.715 389.36 269.295 376.04 269.295 376.04L273.295 300.85L242.075 218.06" stroke="#121331" stroke-width="12" stroke-linecap="round" stroke-linejoin="round"/>
<path d="M178.085 167.15V218.06H242.085V142.36C242.09 137.956 241.185 133.598 239.425 129.56V129.56C237.428 124.975 234.385 120.921 230.539 117.724C226.692 114.528 222.151 112.277 217.277 111.153C212.404 110.029 207.335 110.063 202.477 111.252C197.62 112.441 193.108 114.752 189.305 118L189.145 118.14" stroke="#08A88A" stroke-width="12" stroke-linecap="round" stroke-linejoin="round"/>
<path d="M190.105 117.39L139.645 157.39L113.705 206.08C110.335 229.72 134.925 233.08 134.925 233.08L164.105 178.22L205.005 145.89" stroke="#08A88A" stroke-width="12" stroke-linecap="round" stroke-linejoin="round"/>
</svg>
